<?xml version="1.0" encoding="UTF-8"?>
<svg xmlns="http://www.w3.org/2000/svg" xmlns:xlink="http://www.w3.org/1999/xlink" width="84px" height="84px" viewBox="0 0 84 84" version="1.1">
<defs>
<filter id="alpha" filterUnits="objectBoundingBox" x="0%" y="0%" width="100%" height="100%">
  <feColorMatrix type="matrix" in="SourceGraphic" values="0 0 0 0 1 0 0 0 0 1 0 0 0 0 1 0 0 0 1 0"/>
</filter>
<mask id="mask0">
  <g filter="url(#alpha)">
<rect x="0" y="0" width="84" height="84" style="fill:rgb(0%,0%,0%);fill-opacity:0.976471;stroke:none;"/>
  </g>
</mask>
<clipPath id="clip1">
  <rect x="0" y="0" width="84" height="84"/>
</clipPath>
<g id="surface5" clip-path="url(#clip1)">
<path style=" stroke:none;fill-rule:evenodd;fill:rgb(0.392157%,0.392157%,0.392157%);fill-opacity:1;" d="M 83.917969 24.199219 C 83.917969 24.636719 83.917969 25.074219 83.917969 25.511719 C 83.480469 25.839844 83.097656 26.222656 82.769531 26.660156 C 78.355469 30.828125 74.007812 35.09375 69.726562 39.457031 C 69.964844 40.054688 70.375 40.546875 70.957031 40.933594 C 71.289062 41.460938 71.726562 41.816406 72.269531 42 C 75.550781 38.71875 78.832031 35.4375 82.113281 32.15625 C 82.367188 32.121094 82.585938 32.039062 82.769531 31.910156 C 83.226562 32.003906 83.609375 32.222656 83.917969 32.566406 C 83.917969 33.003906 83.917969 33.441406 83.917969 33.878906 C 80.644531 37.207031 77.363281 40.542969 74.074219 43.886719 C 74.890625 44.785156 75.738281 45.660156 76.617188 46.511719 C 77.765625 48.308594 77.984375 50.222656 77.273438 52.253906 C 73.375 58.464844 69.765625 64.863281 66.445312 71.449219 C 66.300781 74.875 64.578125 77.035156 61.277344 77.929688 C 43.667969 78.039062 26.058594 78.039062 8.449219 77.929688 C 3.917969 76.976562 1.074219 74.269531 -0.0820312 69.808594 C -0.0820312 68.605469 -0.0820312 67.402344 -0.0820312 66.199219 C 1 61.5625 3.898438 58.828125 8.613281 57.996094 C 8.585938 46.621094 8.613281 35.246094 8.695312 23.871094 C 8.953125 23.472656 9.308594 23.253906 9.761719 23.214844 C 10.507812 23.25 10.945312 23.632812 11.074219 24.363281 C 11.046875 33.277344 11.074219 42.191406 11.15625 51.105469 C 11.273438 51.015625 11.355469 50.90625 11.402344 50.777344 C 15.625 45.441406 21.039062 43.664062 27.644531 45.445312 C 28.558594 45.738281 29.433594 46.121094 30.269531 46.59375 C 30.535156 46.960938 30.644531 47.371094 30.597656 47.824219 C 30.34375 48.324219 29.933594 48.597656 29.367188 48.644531 C 28.148438 48.214844 26.917969 47.804688 25.675781 47.414062 C 25.296875 47.332031 24.914062 47.304688 24.527344 47.332031 C 18.261719 46.949219 13.96875 49.683594 11.648438 55.535156 C 10.472656 59.890625 11.292969 63.828125 14.109375 67.347656 C 14.101562 68.609375 13.472656 69.074219 12.222656 68.742188 C 10.230469 66.40625 9.082031 63.699219 8.777344 60.621094 C 5.441406 61.265625 3.335938 63.234375 2.460938 66.527344 C 1.992188 70.484375 3.550781 73.300781 7.136719 74.976562 C 7.714844 75.234375 8.316406 75.371094 8.941406 75.386719 C 26.195312 75.578125 43.476562 75.605469 60.785156 75.46875 C 63.589844 74.425781 64.382812 72.539062 63.164062 69.808594 C 62.585938 68.957031 61.792969 68.4375 60.785156 68.25 C 58.488281 68.167969 56.191406 68.140625 53.894531 68.167969 C 53.457031 68.058594 53.183594 67.785156 53.074219 67.347656 C 53.242188 61.664062 50.507812 58.546875 44.871094 57.996094 C 44.457031 57.996094 44.074219 58.050781 43.722656 58.160156 C 42.664062 58.304688 41.679688 58.660156 40.769531 59.226562 C 40.113281 59.773438 39.457031 60.320312 38.800781 60.867188 C 37.550781 61.09375 36.976562 60.574219 37.078125 59.308594 C 37.859375 58.390625 38.761719 57.625 39.785156 57.011719 C 40.25 56.75 40.6875 56.449219 41.097656 56.109375 C 39.921875 53.632812 37.953125 52.457031 35.191406 52.582031 C 32.78125 52.980469 31.222656 54.347656 30.515625 56.683594 C 30.460938 57.777344 30.40625 58.871094 30.351562 59.964844 C 29.785156 60.667969 29.128906 60.777344 28.382812 60.292969 C 27.386719 56.640625 28.398438 53.6875 31.417969 51.433594 C 31.96875 51.101562 32.515625 50.773438 33.058594 50.449219 C 33.445312 50.394531 33.828125 50.3125 34.207031 50.203125 C 34.644531 49.109375 35.355469 48.234375 36.339844 47.578125 C 42.65625 44.230469 48.945312 40.839844 55.207031 37.40625 C 56.34375 36.515625 57.546875 35.722656 58.816406 35.027344 C 58.980469 29.777344 59.035156 24.527344 58.980469 19.277344 C 58.105469 19.277344 57.230469 19.277344 56.355469 19.277344 C 54.714844 19.304688 53.074219 19.277344 51.433594 19.195312 C 49.546875 18.566406 48.425781 17.28125 48.070312 15.339844 C 47.988281 12.988281 47.960938 10.636719 47.988281 8.285156 C 36.285156 8.257812 24.582031 8.285156 12.878906 8.367188 C 12.046875 8.597656 11.472656 9.117188 11.15625 9.925781 C 11.101562 12.933594 11.046875 15.941406 10.992188 18.949219 C 10.710938 19.40625 10.300781 19.679688 9.761719 19.769531 C 9.320312 19.699219 8.964844 19.480469 8.695312 19.113281 C 8.585938 15.886719 8.585938 12.660156 8.695312 9.433594 C 9.234375 7.527344 10.464844 6.351562 12.386719 5.90625 C 18.347656 5.878906 24.308594 5.851562 30.269531 5.824219 C 36.511719 5.800781 42.746094 5.882812 48.972656 6.070312 C 49.867188 6.378906 50.6875 6.816406 51.433594 7.382812 C 54.25 10.199219 57.066406 13.015625 59.882812 15.832031 C 60.679688 16.71875 61.171875 17.757812 61.359375 18.949219 C 61.441406 23.980469 61.46875 29.011719 61.441406 34.042969 C 62.617188 33.925781 63.710938 34.171875 64.722656 34.78125 C 65.785156 35.707031 66.824219 36.664062 67.839844 37.652344 C 72.511719 33.0625 77.160156 28.441406 81.785156 23.789062 C 82.628906 23.375 83.339844 23.511719 83.917969 24.199219 Z M 83.917969 24.199219 "/>
</g>
<mask id="mask1">
  <g filter="url(#alpha)">
<rect x="0" y="0" width="84" height="84" style="fill:rgb(0%,0%,0%);fill-opacity:0.992157;stroke:none;"/>
  </g>
</mask>
<clipPath id="clip2">
  <rect x="0" y="0" width="84" height="84"/>
</clipPath>
<g id="surface8" clip-path="url(#clip2)">
<path style=" stroke:none;fill-rule:evenodd;fill:rgb(41.568627%,80.392157%,60.784314%);fill-opacity:1;" d="M 82.769531 26.660156 C 82.769531 27.535156 82.769531 28.410156 82.769531 29.285156 C 78.730469 33.050781 74.792969 36.933594 70.957031 40.933594 C 70.375 40.546875 69.964844 40.054688 69.726562 39.457031 C 74.007812 35.09375 78.355469 30.828125 82.769531 26.660156 Z M 82.769531 26.660156 "/>
</g>
</defs>
<g id="surface1">
<use xlink:href="#surface5" mask="url(#mask0)"/>
<path style=" stroke:none;fill-rule:evenodd;fill:rgb(90.980392%,95.686275%,99.215686%);fill-opacity:1;" d="M 56.355469 19.277344 C 56.382812 24.691406 56.355469 30.105469 56.273438 35.519531 C 54.671875 36.46875 53.113281 37.480469 51.597656 38.554688 C 45.691406 41.726562 39.785156 44.898438 33.878906 48.070312 C 33.214844 48.402344 32.613281 48.8125 32.074219 49.300781 C 31.6875 48.914062 31.25 48.585938 30.761719 48.316406 C 30.617188 48.179688 30.5625 48.015625 30.597656 47.824219 C 30.644531 47.371094 30.535156 46.960938 30.269531 46.59375 C 29.433594 46.121094 28.558594 45.738281 27.644531 45.445312 C 21.039062 43.664062 15.625 45.441406 11.402344 50.777344 C 11.292969 41.972656 11.183594 33.167969 11.074219 24.363281 C 10.945312 23.632812 10.507812 23.25 9.761719 23.214844 C 9.761719 22.066406 9.761719 20.917969 9.761719 19.769531 C 10.300781 19.679688 10.710938 19.40625 10.992188 18.949219 C 11.046875 15.941406 11.101562 12.933594 11.15625 9.925781 C 11.472656 9.117188 12.046875 8.597656 12.878906 8.367188 C 24.582031 8.285156 36.285156 8.257812 47.988281 8.285156 C 47.960938 10.636719 47.988281 12.988281 48.070312 15.339844 C 48.425781 17.28125 49.546875 18.566406 51.433594 19.195312 C 53.074219 19.277344 54.714844 19.304688 56.355469 19.277344 Z M 56.355469 19.277344 "/>
<path style=" stroke:none;fill-rule:evenodd;fill:rgb(38.039216%,82.352941%,94.117647%);fill-opacity:1;" d="M 55.042969 16.816406 C 53.625 15.316406 52.179688 13.839844 50.695312 12.386719 C 50.613281 13.316406 50.585938 14.246094 50.613281 15.175781 C 50.421875 13.507812 50.394531 11.8125 50.53125 10.089844 C 52.746094 12.304688 54.960938 14.519531 57.175781 16.734375 C 56.46875 16.816406 55.757812 16.84375 55.042969 16.816406 Z M 55.042969 16.816406 "/>
<path style=" stroke:none;fill-rule:evenodd;fill:rgb(59.215686%,89.411765%,98.039216%);fill-opacity:1;" d="M 55.042969 16.816406 C 53.949219 16.84375 52.855469 16.816406 51.761719 16.734375 C 51.089844 16.417969 50.707031 15.898438 50.613281 15.175781 C 50.585938 14.246094 50.613281 13.316406 50.695312 12.386719 C 52.179688 13.839844 53.625 15.316406 55.042969 16.816406 Z M 55.042969 16.816406 "/>
<path style=" stroke:none;fill-rule:evenodd;fill:rgb(3.137255%,3.137255%,3.137255%);fill-opacity:1;" d="M 17.800781 17.636719 C 22.613281 17.609375 27.425781 17.636719 32.238281 17.71875 C 33.164062 18.617188 33.054688 19.382812 31.910156 20.015625 C 27.316406 20.125 22.722656 20.125 18.128906 20.015625 C 16.972656 19.355469 16.863281 18.5625 17.800781 17.636719 Z M 17.800781 17.636719 "/>
<path style=" stroke:none;fill-rule:evenodd;fill:rgb(76.862745%,91.764706%,97.254902%);fill-opacity:1;" d="M 56.355469 19.277344 C 57.230469 19.277344 58.105469 19.277344 58.980469 19.277344 C 59.035156 24.527344 58.980469 29.777344 58.816406 35.027344 C 57.546875 35.722656 56.34375 36.515625 55.207031 37.40625 C 48.945312 40.839844 42.65625 44.230469 36.339844 47.578125 C 35.355469 48.234375 34.644531 49.109375 34.207031 50.203125 C 33.828125 50.3125 33.445312 50.394531 33.058594 50.449219 C 32.730469 50.066406 32.402344 49.683594 32.074219 49.300781 C 32.613281 48.8125 33.214844 48.402344 33.878906 48.070312 C 39.785156 44.898438 45.691406 41.726562 51.597656 38.554688 C 53.113281 37.480469 54.671875 36.46875 56.273438 35.519531 C 56.355469 30.105469 56.382812 24.691406 56.355469 19.277344 Z M 56.355469 19.277344 "/>
<path style=" stroke:none;fill-rule:evenodd;fill:rgb(69.411765%,72.941176%,75.686275%);fill-opacity:1;" d="M 11.074219 24.363281 C 11.183594 33.167969 11.292969 41.972656 11.402344 50.777344 C 11.355469 50.90625 11.273438 51.015625 11.15625 51.105469 C 11.074219 42.191406 11.046875 33.277344 11.074219 24.363281 Z M 11.074219 24.363281 "/>
<use xlink:href="#surface8" mask="url(#mask1)"/>
<path style=" stroke:none;fill-rule:evenodd;fill:rgb(2.352941%,2.352941%,2.745098%);fill-opacity:1;" d="M 17.964844 26.988281 C 27.753906 26.960938 37.542969 26.988281 47.332031 27.070312 C 48.574219 27.757812 48.628906 28.523438 47.496094 29.367188 C 37.652344 29.476562 27.808594 29.476562 17.964844 29.367188 C 17.449219 29.160156 17.175781 28.777344 17.144531 28.21875 C 17.316406 27.746094 17.589844 27.335938 17.964844 26.988281 Z M 17.964844 26.988281 "/>
<path style=" stroke:none;fill-rule:evenodd;fill:rgb(27.058824%,78.039216%,54.117647%);fill-opacity:1;" d="M 82.769531 29.285156 C 82.769531 30.160156 82.769531 31.035156 82.769531 31.910156 C 82.585938 32.039062 82.367188 32.121094 82.113281 32.15625 C 78.832031 35.4375 75.550781 38.71875 72.269531 42 C 71.726562 41.816406 71.289062 41.460938 70.957031 40.933594 C 74.792969 36.933594 78.730469 33.050781 82.769531 29.285156 Z M 82.769531 29.285156 "/>
<path style=" stroke:none;fill-rule:evenodd;fill:rgb(3.529412%,3.529412%,3.921569%);fill-opacity:1;" d="M 18.128906 33.058594 C 27.863281 33.03125 37.597656 33.058594 47.332031 33.140625 C 48.503906 33.753906 48.613281 34.519531 47.660156 35.4375 C 37.707031 35.546875 27.753906 35.546875 17.800781 35.4375 C 16.890625 34.511719 17 33.71875 18.128906 33.058594 Z M 18.128906 33.058594 "/>
<path style=" stroke:none;fill-rule:evenodd;fill:rgb(26.666667%,78.431373%,54.117647%);fill-opacity:1;" d="M 71.613281 52.417969 C 72.4375 50.847656 72.464844 49.261719 71.695312 47.660156 C 68.140625 43.96875 64.558594 40.304688 60.949219 36.667969 C 61.882812 36.378906 62.757812 36.515625 63.574219 37.078125 C 67.265625 40.769531 70.957031 44.460938 74.648438 48.152344 C 75.167969 48.902344 75.332031 49.722656 75.140625 50.613281 C 74.664062 51.726562 74.0625 52.765625 73.335938 53.730469 C 73.21875 53.886719 73.082031 53.914062 72.925781 53.8125 C 72.453125 53.367188 72.015625 52.902344 71.613281 52.417969 Z M 71.613281 52.417969 "/>
<path style=" stroke:none;fill-rule:evenodd;fill:rgb(41.960784%,81.960784%,61.960784%);fill-opacity:1;" d="M 60.949219 36.667969 C 64.558594 40.304688 68.140625 43.96875 71.695312 47.660156 C 72.464844 49.261719 72.4375 50.847656 71.613281 52.417969 C 67.023438 47.910156 62.457031 43.371094 57.914062 38.800781 C 57.8125 38.644531 57.839844 38.507812 57.996094 38.390625 C 58.960938 37.769531 59.945312 37.195312 60.949219 36.667969 Z M 60.949219 36.667969 "/>
<path style=" stroke:none;fill-rule:evenodd;fill:rgb(3.529412%,3.529412%,3.921569%);fill-opacity:1;" d="M 17.800781 39.292969 C 24.800781 39.265625 31.800781 39.292969 38.800781 39.375 C 39.488281 39.863281 39.625 40.492188 39.210938 41.261719 C 39.003906 41.378906 38.8125 41.515625 38.636719 41.671875 C 31.800781 41.78125 24.964844 41.78125 18.128906 41.671875 C 16.972656 41.011719 16.863281 40.21875 17.800781 39.292969 Z M 17.800781 39.292969 "/>
<path style=" stroke:none;fill-rule:evenodd;fill:rgb(98.823529%,75.686275%,26.27451%);fill-opacity:1;" d="M 70.136719 54.550781 C 67.964844 58.625 65.667969 62.617188 63.246094 66.527344 C 62.511719 66.210938 61.746094 65.992188 60.949219 65.871094 C 60.621094 65.761719 60.292969 65.652344 59.964844 65.542969 C 61.960938 62.429688 63.957031 59.3125 65.953125 56.191406 C 65.980469 55.019531 65.40625 54.554688 64.230469 54.796875 C 61.75 58.253906 59.371094 61.78125 57.09375 65.378906 C 57.011719 65.460938 56.929688 65.542969 56.847656 65.625 C 56.359375 65.707031 55.867188 65.734375 55.371094 65.707031 C 55.464844 63.722656 54.945312 61.917969 53.8125 60.292969 C 53.703125 60.128906 53.703125 59.964844 53.8125 59.800781 C 56.390625 57.277344 58.90625 54.707031 61.359375 52.089844 C 61.460938 50.460938 60.777344 49.996094 59.308594 50.695312 C 56.871094 53.160156 54.410156 55.59375 51.925781 57.996094 C 49.980469 56.554688 47.792969 55.707031 45.363281 55.453125 C 46.28125 54.84375 47.183594 54.214844 48.070312 53.566406 C 48.519531 52.15625 48 51.527344 46.511719 51.679688 C 45.335938 52.511719 44.132812 53.304688 42.902344 54.058594 C 41.53125 51.976562 39.617188 50.664062 37.160156 50.121094 C 43.246094 46.625 49.398438 43.234375 55.617188 39.949219 C 60.488281 44.792969 65.328125 49.660156 70.136719 54.550781 Z M 70.136719 54.550781 "/>
<path style=" stroke:none;fill-rule:evenodd;fill:rgb(2.745098%,1.568627%,0.392157%);fill-opacity:1;" d="M 55.371094 45.855469 C 56.773438 45.753906 57.292969 46.355469 56.929688 47.660156 C 55.421875 48.867188 53.808594 49.90625 52.089844 50.777344 C 50.941406 50.445312 50.640625 49.734375 51.1875 48.644531 C 52.578125 47.691406 53.972656 46.761719 55.371094 45.855469 Z M 55.371094 45.855469 "/>
<path style=" stroke:none;fill-rule:evenodd;fill:rgb(55.294118%,72.54902%,76.862745%);fill-opacity:1;" d="M 24.527344 47.332031 C 26.328125 48.335938 27.859375 49.675781 29.121094 51.351562 C 29.914062 51.269531 30.679688 51.296875 31.417969 51.433594 C 28.398438 53.6875 27.386719 56.640625 28.382812 60.292969 C 29.128906 60.777344 29.785156 60.667969 30.351562 59.964844 C 30.40625 58.871094 30.460938 57.777344 30.515625 56.683594 C 31.222656 54.347656 32.78125 52.980469 35.191406 52.582031 C 36.609375 53.71875 37.484375 55.195312 37.816406 57.011719 C 38.496094 56.824219 39.152344 56.824219 39.785156 57.011719 C 38.761719 57.625 37.859375 58.390625 37.078125 59.308594 C 36.976562 60.574219 37.550781 61.09375 38.800781 60.867188 C 39.457031 60.320312 40.113281 59.773438 40.769531 59.226562 C 41.679688 58.660156 42.664062 58.304688 43.722656 58.160156 C 44.273438 58.132812 44.820312 58.160156 45.363281 58.242188 C 48.339844 60.398438 49.707031 63.324219 49.464844 67.019531 C 50.714844 66.925781 51.917969 67.035156 53.074219 67.347656 C 53.183594 67.785156 53.457031 68.058594 53.894531 68.167969 C 55.507812 68.304688 57.148438 68.386719 58.816406 68.414062 C 60.777344 70.707031 60.777344 73.003906 58.816406 75.304688 C 42.191406 75.386719 25.566406 75.414062 8.941406 75.386719 C 8.316406 75.371094 7.714844 75.234375 7.136719 74.976562 C 3.550781 73.300781 1.992188 70.484375 2.460938 66.527344 C 3.335938 63.234375 5.441406 61.265625 8.777344 60.621094 C 9.082031 63.699219 10.230469 66.40625 12.222656 68.742188 C 13.472656 69.074219 14.101562 68.609375 14.109375 67.347656 C 11.292969 63.828125 10.472656 59.890625 11.648438 55.535156 C 13.96875 49.683594 18.261719 46.949219 24.527344 47.332031 Z M 24.527344 47.332031 "/>
<path style=" stroke:none;fill-rule:evenodd;fill:rgb(48.235294%,62.352941%,68.627451%);fill-opacity:1;" d="M 24.527344 47.332031 C 24.914062 47.304688 25.296875 47.332031 25.675781 47.414062 C 26.917969 47.804688 28.148438 48.214844 29.367188 48.644531 C 29.933594 48.597656 30.34375 48.324219 30.597656 47.824219 C 30.5625 48.015625 30.617188 48.179688 30.761719 48.316406 C 31.25 48.585938 31.6875 48.914062 32.074219 49.300781 C 32.402344 49.683594 32.730469 50.066406 33.058594 50.449219 C 32.515625 50.773438 31.96875 51.101562 31.417969 51.433594 C 30.679688 51.296875 29.914062 51.269531 29.121094 51.351562 C 27.859375 49.675781 26.328125 48.335938 24.527344 47.332031 Z M 24.527344 47.332031 "/>
<path style=" stroke:none;fill-rule:evenodd;fill:rgb(47.843137%,62.352941%,68.235294%);fill-opacity:1;" d="M 35.191406 52.582031 C 37.953125 52.457031 39.921875 53.632812 41.097656 56.109375 C 40.6875 56.449219 40.25 56.75 39.785156 57.011719 C 39.152344 56.824219 38.496094 56.824219 37.816406 57.011719 C 37.484375 55.195312 36.609375 53.71875 35.191406 52.582031 Z M 35.191406 52.582031 "/>
<path style=" stroke:none;fill-rule:evenodd;fill:rgb(98.039216%,68.627451%,21.176471%);fill-opacity:1;" d="M 70.136719 54.550781 C 70.734375 55.039062 71.28125 55.585938 71.777344 56.191406 C 69.605469 60.265625 67.390625 64.3125 65.132812 68.332031 C 64.585938 67.636719 63.957031 67.035156 63.246094 66.527344 C 65.667969 62.617188 67.964844 58.625 70.136719 54.550781 Z M 70.136719 54.550781 "/>
<path style=" stroke:none;fill-rule:evenodd;fill:rgb(47.843137%,61.960784%,68.235294%);fill-opacity:1;" d="M 43.722656 58.160156 C 44.074219 58.050781 44.457031 57.996094 44.871094 57.996094 C 50.507812 58.546875 53.242188 61.664062 53.074219 67.347656 C 51.917969 67.035156 50.714844 66.925781 49.464844 67.019531 C 49.707031 63.324219 48.339844 60.398438 45.363281 58.242188 C 44.820312 58.160156 44.273438 58.132812 43.722656 58.160156 Z M 43.722656 58.160156 "/>
<path style=" stroke:none;fill-rule:evenodd;fill:rgb(49.019608%,37.254902%,12.941176%);fill-opacity:1;" d="M 59.964844 65.542969 C 60.292969 65.652344 60.621094 65.761719 60.949219 65.871094 C 60.550781 65.921875 60.167969 65.867188 59.800781 65.707031 C 59.820312 65.609375 59.875 65.554688 59.964844 65.542969 Z M 59.964844 65.542969 "/>
<path style=" stroke:none;fill-rule:evenodd;fill:rgb(44.313725%,57.647059%,63.137255%);fill-opacity:1;" d="M 53.894531 68.167969 C 56.191406 68.140625 58.488281 68.167969 60.785156 68.25 C 61.792969 68.4375 62.585938 68.957031 63.164062 69.808594 C 64.382812 72.539062 63.589844 74.425781 60.785156 75.46875 C 43.476562 75.605469 26.195312 75.578125 8.941406 75.386719 C 25.566406 75.414062 42.191406 75.386719 58.816406 75.304688 C 60.777344 73.003906 60.777344 70.707031 58.816406 68.414062 C 57.148438 68.386719 55.507812 68.304688 53.894531 68.167969 Z M 53.894531 68.167969 "/>
</g>
</svg>
