<?xml version="1.0" encoding="UTF-8"?>
<svg xmlns="http://www.w3.org/2000/svg" xmlns:xlink="http://www.w3.org/1999/xlink" width="84px" height="84px" viewBox="0 0 84 84" version="1.1">
<defs>
<filter id="alpha" filterUnits="objectBoundingBox" x="0%" y="0%" width="100%" height="100%">
  <feColorMatrix type="matrix" in="SourceGraphic" values="0 0 0 0 1 0 0 0 0 1 0 0 0 0 1 0 0 0 1 0"/>
</filter>
<mask id="mask0">
  <g filter="url(#alpha)">
<rect x="0" y="0" width="84" height="84" style="fill:rgb(0%,0%,0%);fill-opacity:0.972549;stroke:none;"/>
  </g>
</mask>
<clipPath id="clip1">
  <rect x="0" y="0" width="84" height="84"/>
</clipPath>
<g id="surface5" clip-path="url(#clip1)">
<path style=" stroke:none;fill-rule:evenodd;fill:rgb(0%,0%,0%);fill-opacity:1;" d="M 3.199219 2.542969 C 8.011719 2.515625 12.824219 2.542969 17.636719 2.625 C 20.5625 5.332031 23.378906 8.148438 26.085938 11.074219 C 26.195312 18.511719 26.195312 25.949219 26.085938 33.386719 C 26.003906 33.6875 25.8125 33.878906 25.511719 33.960938 C 22.285156 34.042969 19.058594 34.070312 15.832031 34.042969 C 16.058594 36.320312 17.316406 37.605469 19.605469 37.898438 C 21.410156 37.953125 23.214844 38.007812 25.019531 38.0625 C 27.671875 38.746094 29.339844 40.414062 30.023438 43.066406 C 30.078125 44.160156 30.132812 45.253906 30.1875 46.347656 C 31.121094 45.386719 32.078125 44.457031 33.058594 43.558594 C 33.859375 44.164062 34.488281 44.875 34.945312 45.691406 C 33.222656 47.414062 31.5 49.136719 29.777344 50.859375 C 29.121094 51.1875 28.464844 51.1875 27.808594 50.859375 C 26.027344 49.105469 24.277344 47.328125 22.558594 45.527344 C 23.160156 44.816406 23.816406 44.160156 24.527344 43.558594 C 25.507812 44.457031 26.464844 45.386719 27.398438 46.347656 C 27.761719 44.339844 27.1875 42.671875 25.675781 41.34375 C 25.3125 41.132812 24.929688 40.96875 24.527344 40.851562 C 22.402344 40.652344 20.269531 40.542969 18.128906 40.523438 C 14.84375 39.609375 13.148438 37.449219 13.042969 34.042969 C 9.761719 34.070312 6.480469 34.042969 3.199219 33.960938 C 2.898438 33.878906 2.707031 33.6875 2.625 33.386719 C 2.515625 23.324219 2.515625 13.261719 2.625 3.199219 C 2.738281 2.894531 2.929688 2.675781 3.199219 2.542969 Z M 5.167969 5.167969 C 8.667969 5.167969 12.167969 5.167969 15.667969 5.167969 C 15.589844 7.699219 15.671875 10.214844 15.914062 12.714844 C 16.039062 12.816406 16.175781 12.898438 16.324219 12.960938 C 18.730469 13.042969 21.136719 13.070312 23.542969 13.042969 C 23.542969 19.167969 23.542969 25.292969 23.542969 31.417969 C 17.417969 31.417969 11.292969 31.417969 5.167969 31.417969 C 5.167969 22.667969 5.167969 13.917969 5.167969 5.167969 Z M 18.292969 7.300781 C 19.355469 8.277344 20.394531 9.289062 21.410156 10.335938 C 20.371094 10.417969 19.332031 10.445312 18.292969 10.417969 C 18.292969 9.378906 18.292969 8.339844 18.292969 7.300781 Z M 18.292969 7.300781 "/>
</g>
<mask id="mask1">
  <g filter="url(#alpha)">
<rect x="0" y="0" width="84" height="84" style="fill:rgb(0%,0%,0%);fill-opacity:0.960784;stroke:none;"/>
  </g>
</mask>
<clipPath id="clip2">
  <rect x="0" y="0" width="84" height="84"/>
</clipPath>
<g id="surface8" clip-path="url(#clip2)">
<path style=" stroke:none;fill-rule:evenodd;fill:rgb(0%,0%,0%);fill-opacity:1;" d="M 30.761719 2.542969 C 35.574219 2.515625 40.386719 2.542969 45.199219 2.625 C 48.125 5.332031 50.941406 8.148438 53.648438 11.074219 C 53.757812 18.511719 53.757812 25.949219 53.648438 33.386719 C 53.566406 33.6875 53.375 33.878906 53.074219 33.960938 C 49.792969 34.042969 46.511719 34.070312 43.230469 34.042969 C 43.230469 39.402344 43.230469 44.761719 43.230469 50.121094 C 53.65625 53.039062 64.046875 56.074219 74.402344 59.226562 C 74.503906 59.351562 74.585938 59.488281 74.648438 59.636719 C 74.757812 63.574219 74.757812 67.511719 74.648438 71.449219 C 74.464844 71.828125 74.164062 72.074219 73.746094 72.1875 C 63.160156 75.324219 52.550781 78.359375 41.917969 81.292969 C 31.046875 78.300781 20.21875 75.15625 9.433594 71.859375 C 9.332031 71.734375 9.25 71.597656 9.1875 71.449219 C 9.078125 67.511719 9.078125 63.574219 9.1875 59.636719 C 9.25 59.488281 9.332031 59.351562 9.433594 59.226562 C 19.792969 56.074219 30.183594 53.039062 40.605469 50.121094 C 40.605469 44.761719 40.605469 39.402344 40.605469 34.042969 C 37.324219 34.070312 34.042969 34.042969 30.761719 33.960938 C 30.460938 33.878906 30.269531 33.6875 30.1875 33.386719 C 30.078125 23.324219 30.078125 13.261719 30.1875 3.199219 C 30.300781 2.894531 30.492188 2.675781 30.761719 2.542969 Z M 32.730469 5.167969 C 36.230469 5.167969 39.730469 5.167969 43.230469 5.167969 C 43.152344 7.699219 43.234375 10.214844 43.476562 12.714844 C 43.601562 12.816406 43.738281 12.898438 43.886719 12.960938 C 46.292969 13.042969 48.699219 13.070312 51.105469 13.042969 C 51.105469 19.167969 51.105469 25.292969 51.105469 31.417969 C 44.980469 31.417969 38.855469 31.417969 32.730469 31.417969 C 32.730469 22.667969 32.730469 13.917969 32.730469 5.167969 Z M 45.855469 7.300781 C 46.917969 8.277344 47.957031 9.289062 48.972656 10.335938 C 47.933594 10.417969 46.894531 10.445312 45.855469 10.417969 C 45.855469 9.378906 45.855469 8.339844 45.855469 7.300781 Z M 40.441406 52.910156 C 40.632812 55.070312 40.660156 57.257812 40.523438 59.472656 C 39.589844 58.511719 38.632812 57.582031 37.652344 56.683594 C 36.941406 57.285156 36.285156 57.941406 35.683594 58.652344 C 37.464844 60.570312 39.324219 62.402344 41.261719 64.148438 C 41.828125 64.28125 42.378906 64.226562 42.902344 63.984375 C 44.683594 62.230469 46.433594 60.453125 48.152344 58.652344 C 47.550781 57.941406 46.894531 57.285156 46.183594 56.683594 C 45.203125 57.582031 44.246094 58.511719 43.3125 59.472656 C 43.203125 57.285156 43.203125 55.097656 43.3125 52.910156 C 51.589844 55.382812 59.875 57.84375 68.167969 60.292969 C 59.339844 62.992188 50.480469 65.535156 41.589844 67.921875 C 32.933594 65.429688 24.292969 62.886719 15.667969 60.292969 C 23.949219 57.855469 32.207031 55.394531 40.441406 52.910156 Z M 11.730469 62.097656 C 21.335938 64.953125 30.960938 67.742188 40.605469 70.464844 C 40.632812 73.035156 40.605469 75.605469 40.523438 78.175781 C 30.960938 75.273438 21.363281 72.484375 11.730469 69.808594 C 11.730469 67.238281 11.730469 64.667969 11.730469 62.097656 Z M 71.941406 62.097656 C 72.105469 64.640625 72.160156 67.210938 72.105469 69.808594 C 62.484375 72.515625 52.886719 75.304688 43.3125 78.175781 C 43.230469 75.605469 43.203125 73.035156 43.230469 70.464844 C 52.851562 67.800781 62.421875 65.011719 71.941406 62.097656 Z M 71.941406 62.097656 "/>
</g>
<mask id="mask2">
  <g filter="url(#alpha)">
<rect x="0" y="0" width="84" height="84" style="fill:rgb(0%,0%,0%);fill-opacity:0.972549;stroke:none;"/>
  </g>
</mask>
<clipPath id="clip3">
  <rect x="0" y="0" width="84" height="84"/>
</clipPath>
<g id="surface11" clip-path="url(#clip3)">
<path style=" stroke:none;fill-rule:evenodd;fill:rgb(0%,0%,0%);fill-opacity:1;" d="M 58.324219 2.542969 C 63.136719 2.515625 67.949219 2.542969 72.761719 2.625 C 75.6875 5.332031 78.503906 8.148438 81.210938 11.074219 C 81.320312 18.511719 81.320312 25.949219 81.210938 33.386719 C 81.128906 33.6875 80.9375 33.878906 80.636719 33.960938 C 77.355469 34.042969 74.074219 34.070312 70.792969 34.042969 C 70.6875 37.449219 68.992188 39.609375 65.707031 40.523438 C 63.515625 40.546875 61.328125 40.65625 59.144531 40.851562 C 56.871094 41.980469 55.96875 43.8125 56.4375 46.347656 C 57.371094 45.386719 58.328125 44.457031 59.308594 43.558594 C 60.019531 44.160156 60.675781 44.816406 61.277344 45.527344 C 59.558594 47.328125 57.808594 49.105469 56.027344 50.859375 C 55.371094 51.1875 54.714844 51.1875 54.058594 50.859375 C 52.335938 49.136719 50.613281 47.414062 48.890625 45.691406 C 49.347656 44.875 49.976562 44.164062 50.777344 43.558594 C 51.757812 44.457031 52.714844 45.386719 53.648438 46.347656 C 53.148438 42.890625 54.378906 40.292969 57.339844 38.554688 C 57.816406 38.34375 58.308594 38.179688 58.816406 38.0625 C 60.621094 38.007812 62.425781 37.953125 64.230469 37.898438 C 66.519531 37.605469 67.777344 36.320312 68.003906 34.042969 C 64.777344 34.070312 61.550781 34.042969 58.324219 33.960938 C 58.023438 33.878906 57.832031 33.6875 57.75 33.386719 C 57.640625 23.324219 57.640625 13.261719 57.75 3.199219 C 57.863281 2.894531 58.054688 2.675781 58.324219 2.542969 Z M 60.292969 5.167969 C 63.792969 5.167969 67.292969 5.167969 70.792969 5.167969 C 70.714844 7.699219 70.796875 10.214844 71.039062 12.714844 C 71.164062 12.816406 71.300781 12.898438 71.449219 12.960938 C 73.855469 13.042969 76.261719 13.070312 78.667969 13.042969 C 78.667969 19.167969 78.667969 25.292969 78.667969 31.417969 C 72.542969 31.417969 66.417969 31.417969 60.292969 31.417969 C 60.292969 22.667969 60.292969 13.917969 60.292969 5.167969 Z M 73.417969 7.300781 C 74.480469 8.277344 75.519531 9.289062 76.535156 10.335938 C 75.496094 10.417969 74.457031 10.445312 73.417969 10.417969 C 73.417969 9.378906 73.417969 8.339844 73.417969 7.300781 Z M 73.417969 7.300781 "/>
</g>
</defs>
<g id="surface1">
<use xlink:href="#surface5" mask="url(#mask0)"/>
<use xlink:href="#surface8" mask="url(#mask1)"/>
<use xlink:href="#surface11" mask="url(#mask2)"/>
<path style=" stroke:none;fill-rule:evenodd;fill:rgb(0%,0%,0%);fill-opacity:1;" d="M 7.792969 10.417969 C 9.542969 10.417969 11.292969 10.417969 13.042969 10.417969 C 13.042969 11.292969 13.042969 12.167969 13.042969 13.042969 C 11.292969 13.042969 9.542969 13.042969 7.792969 13.042969 C 7.792969 12.167969 7.792969 11.292969 7.792969 10.417969 Z M 7.792969 10.417969 "/>
<path style=" stroke:none;fill-rule:evenodd;fill:rgb(0%,0%,0%);fill-opacity:1;" d="M 35.355469 10.417969 C 37.105469 10.417969 38.855469 10.417969 40.605469 10.417969 C 40.605469 11.292969 40.605469 12.167969 40.605469 13.042969 C 38.855469 13.042969 37.105469 13.042969 35.355469 13.042969 C 35.355469 12.167969 35.355469 11.292969 35.355469 10.417969 Z M 35.355469 10.417969 "/>
<path style=" stroke:none;fill-rule:evenodd;fill:rgb(0%,0%,0%);fill-opacity:1;" d="M 62.917969 10.417969 C 64.667969 10.417969 66.417969 10.417969 68.167969 10.417969 C 68.167969 11.292969 68.167969 12.167969 68.167969 13.042969 C 66.417969 13.042969 64.667969 13.042969 62.917969 13.042969 C 62.917969 12.167969 62.917969 11.292969 62.917969 10.417969 Z M 62.917969 10.417969 "/>
<path style=" stroke:none;fill-rule:evenodd;fill:rgb(0%,0%,0%);fill-opacity:1;" d="M 7.792969 15.667969 C 12.167969 15.667969 16.542969 15.667969 20.917969 15.667969 C 20.917969 16.542969 20.917969 17.417969 20.917969 18.292969 C 16.542969 18.292969 12.167969 18.292969 7.792969 18.292969 C 7.792969 17.417969 7.792969 16.542969 7.792969 15.667969 Z M 7.792969 15.667969 "/>
<path style=" stroke:none;fill-rule:evenodd;fill:rgb(0%,0%,0%);fill-opacity:1;" d="M 35.355469 15.667969 C 39.730469 15.667969 44.105469 15.667969 48.480469 15.667969 C 48.480469 16.542969 48.480469 17.417969 48.480469 18.292969 C 44.105469 18.292969 39.730469 18.292969 35.355469 18.292969 C 35.355469 17.417969 35.355469 16.542969 35.355469 15.667969 Z M 35.355469 15.667969 "/>
<path style=" stroke:none;fill-rule:evenodd;fill:rgb(0%,0%,0%);fill-opacity:1;" d="M 62.917969 15.667969 C 67.292969 15.667969 71.667969 15.667969 76.042969 15.667969 C 76.042969 16.542969 76.042969 17.417969 76.042969 18.292969 C 71.667969 18.292969 67.292969 18.292969 62.917969 18.292969 C 62.917969 17.417969 62.917969 16.542969 62.917969 15.667969 Z M 62.917969 15.667969 "/>
<path style=" stroke:none;fill-rule:evenodd;fill:rgb(0%,0%,0%);fill-opacity:1;" d="M 7.792969 20.917969 C 12.167969 20.917969 16.542969 20.917969 20.917969 20.917969 C 20.917969 21.792969 20.917969 22.667969 20.917969 23.542969 C 16.542969 23.542969 12.167969 23.542969 7.792969 23.542969 C 7.792969 22.667969 7.792969 21.792969 7.792969 20.917969 Z M 7.792969 20.917969 "/>
<path style=" stroke:none;fill-rule:evenodd;fill:rgb(0%,0%,0%);fill-opacity:1;" d="M 35.355469 20.917969 C 39.730469 20.917969 44.105469 20.917969 48.480469 20.917969 C 48.480469 21.792969 48.480469 22.667969 48.480469 23.542969 C 44.105469 23.542969 39.730469 23.542969 35.355469 23.542969 C 35.355469 22.667969 35.355469 21.792969 35.355469 20.917969 Z M 35.355469 20.917969 "/>
<path style=" stroke:none;fill-rule:evenodd;fill:rgb(0%,0%,0%);fill-opacity:1;" d="M 62.917969 20.917969 C 67.292969 20.917969 71.667969 20.917969 76.042969 20.917969 C 76.042969 21.792969 76.042969 22.667969 76.042969 23.542969 C 71.667969 23.542969 67.292969 23.542969 62.917969 23.542969 C 62.917969 22.667969 62.917969 21.792969 62.917969 20.917969 Z M 62.917969 20.917969 "/>
<path style=" stroke:none;fill-rule:evenodd;fill:rgb(0%,0%,0%);fill-opacity:1;" d="M 7.792969 26.167969 C 12.167969 26.167969 16.542969 26.167969 20.917969 26.167969 C 20.917969 27.042969 20.917969 27.917969 20.917969 28.792969 C 16.542969 28.792969 12.167969 28.792969 7.792969 28.792969 C 7.792969 27.917969 7.792969 27.042969 7.792969 26.167969 Z M 7.792969 26.167969 "/>
<path style=" stroke:none;fill-rule:evenodd;fill:rgb(0%,0%,0%);fill-opacity:1;" d="M 35.355469 26.167969 C 36.230469 26.167969 37.105469 26.167969 37.980469 26.167969 C 37.980469 27.042969 37.980469 27.917969 37.980469 28.792969 C 37.105469 28.792969 36.230469 28.792969 35.355469 28.792969 C 35.355469 27.917969 35.355469 27.042969 35.355469 26.167969 Z M 35.355469 26.167969 "/>
<path style=" stroke:none;fill-rule:evenodd;fill:rgb(0%,0%,0%);fill-opacity:1;" d="M 40.605469 26.167969 C 41.480469 26.167969 42.355469 26.167969 43.230469 26.167969 C 43.230469 27.042969 43.230469 27.917969 43.230469 28.792969 C 42.355469 28.792969 41.480469 28.792969 40.605469 28.792969 C 40.605469 27.917969 40.605469 27.042969 40.605469 26.167969 Z M 40.605469 26.167969 "/>
<path style=" stroke:none;fill-rule:evenodd;fill:rgb(0%,0%,0%);fill-opacity:1;" d="M 45.855469 26.167969 C 46.730469 26.167969 47.605469 26.167969 48.480469 26.167969 C 48.480469 27.042969 48.480469 27.917969 48.480469 28.792969 C 47.605469 28.792969 46.730469 28.792969 45.855469 28.792969 C 45.855469 27.917969 45.855469 27.042969 45.855469 26.167969 Z M 45.855469 26.167969 "/>
<path style=" stroke:none;fill-rule:evenodd;fill:rgb(0%,0%,0%);fill-opacity:1;" d="M 62.917969 26.167969 C 67.292969 26.167969 71.667969 26.167969 76.042969 26.167969 C 76.042969 27.042969 76.042969 27.917969 76.042969 28.792969 C 71.667969 28.792969 67.292969 28.792969 62.917969 28.792969 C 62.917969 27.917969 62.917969 27.042969 62.917969 26.167969 Z M 62.917969 26.167969 "/>
</g>
</svg>
