<?xml version="1.0" encoding="UTF-8"?>
<svg xmlns="http://www.w3.org/2000/svg" xmlns:xlink="http://www.w3.org/1999/xlink" width="84px" height="84px" viewBox="0 0 84 84" version="1.1">
<defs>
<filter id="alpha" filterUnits="objectBoundingBox" x="0%" y="0%" width="100%" height="100%">
  <feColorMatrix type="matrix" in="SourceGraphic" values="0 0 0 0 1 0 0 0 0 1 0 0 0 0 1 0 0 0 1 0"/>
</filter>
<mask id="mask0">
  <g filter="url(#alpha)">
<rect x="0" y="0" width="84" height="84" style="fill:rgb(0%,0%,0%);fill-opacity:0.980392;stroke:none;"/>
  </g>
</mask>
<clipPath id="clip1">
  <rect x="0" y="0" width="84" height="84"/>
</clipPath>
<g id="surface5" clip-path="url(#clip1)">
<path style=" stroke:none;fill-rule:evenodd;fill:rgb(0%,0%,0%);fill-opacity:1;" d="M 18.949219 1.230469 C 24.523438 0.691406 28.488281 2.933594 30.84375 7.957031 C 32.421875 13.109375 31.082031 17.292969 26.824219 20.507812 C 29.515625 21.523438 31.8125 23.109375 33.714844 25.265625 C 34.21875 25.261719 34.710938 25.152344 35.191406 24.9375 C 47.550781 24.828125 59.910156 24.828125 72.269531 24.9375 C 74.921875 25.621094 76.589844 27.289062 77.273438 29.941406 C 77.355469 34.371094 77.382812 38.800781 77.355469 43.230469 C 79.105469 43.230469 80.855469 43.230469 82.605469 43.230469 C 82.605469 56.355469 82.605469 69.480469 82.605469 82.605469 C 55.480469 82.605469 28.355469 82.605469 1.230469 82.605469 C 1.230469 69.480469 1.230469 56.355469 1.230469 43.230469 C 2.105469 43.230469 2.980469 43.230469 3.855469 43.230469 C 3.828125 40.222656 3.855469 37.214844 3.9375 34.207031 C 5.15625 27.640625 8.847656 23.074219 15.011719 20.507812 C 10.753906 17.292969 9.414062 13.109375 10.992188 7.957031 C 12.503906 4.347656 15.15625 2.105469 18.949219 1.230469 Z M 19.441406 4.019531 C 24.152344 3.675781 27.1875 5.753906 28.546875 10.253906 C 28.96875 14.96875 26.917969 18.003906 22.394531 19.359375 C 17.679688 19.78125 14.644531 17.730469 13.289062 13.207031 C 12.898438 8.488281 14.949219 5.425781 19.441406 4.019531 Z M 20.753906 22.230469 C 25.066406 22.363281 28.675781 24.003906 31.582031 27.152344 C 30.867188 27.953125 30.402344 28.882812 30.1875 29.941406 C 30.105469 34.371094 30.078125 38.800781 30.105469 43.230469 C 24.417969 43.230469 18.730469 43.230469 13.042969 43.230469 C 13.042969 39.292969 13.042969 35.355469 13.042969 31.417969 C 12.167969 31.417969 11.292969 31.417969 10.417969 31.417969 C 10.417969 35.355469 10.417969 39.292969 10.417969 43.230469 C 9.105469 43.230469 7.792969 43.230469 6.480469 43.230469 C 6.433594 40.328125 6.515625 37.429688 6.726562 34.535156 C 8.425781 27.011719 13.101562 22.910156 20.753906 22.230469 Z M 36.667969 27.480469 C 48.042969 27.453125 59.417969 27.480469 70.792969 27.5625 C 73.0625 27.863281 74.347656 29.148438 74.648438 31.417969 C 74.730469 37.105469 74.757812 42.792969 74.730469 48.480469 C 60.730469 48.480469 46.730469 48.480469 32.730469 48.480469 C 32.65625 42.460938 32.738281 36.445312 32.976562 30.433594 C 33.613281 28.671875 34.84375 27.6875 36.667969 27.480469 Z M 62.917969 32.730469 C 63.792969 32.730469 64.667969 32.730469 65.542969 32.730469 C 65.542969 36.230469 65.542969 39.730469 65.542969 43.230469 C 64.667969 43.230469 63.792969 43.230469 62.917969 43.230469 C 62.917969 39.730469 62.917969 36.230469 62.917969 32.730469 Z M 41.917969 35.355469 C 42.792969 35.355469 43.667969 35.355469 44.542969 35.355469 C 44.542969 37.980469 44.542969 40.605469 44.542969 43.230469 C 43.667969 43.230469 42.792969 43.230469 41.917969 43.230469 C 41.917969 40.605469 41.917969 37.980469 41.917969 35.355469 Z M 52.417969 37.980469 C 53.292969 37.980469 54.167969 37.980469 55.042969 37.980469 C 55.042969 39.730469 55.042969 41.480469 55.042969 43.230469 C 54.167969 43.230469 53.292969 43.230469 52.417969 43.230469 C 52.417969 41.480469 52.417969 39.730469 52.417969 37.980469 Z M 3.855469 45.855469 C 12.605469 45.855469 21.355469 45.855469 30.105469 45.855469 C 30.132812 48.152344 30.105469 50.449219 30.023438 52.746094 C 29.308594 51.433594 28.242188 50.53125 26.824219 50.039062 C 21.136719 47.960938 15.453125 47.960938 9.761719 50.039062 C 8.34375 50.53125 7.277344 51.433594 6.5625 52.746094 C 6.453125 56.902344 6.453125 61.058594 6.5625 65.214844 C 7.277344 66.527344 8.34375 67.429688 9.761719 67.921875 C 14.957031 69.804688 20.207031 69.96875 25.511719 68.414062 C 26.617188 68.054688 27.65625 67.5625 28.628906 66.9375 C 29.21875 66.457031 29.683594 65.882812 30.023438 65.214844 C 30.078125 61.441406 30.132812 57.667969 30.1875 53.894531 C 30.871094 56.546875 32.539062 58.214844 35.191406 58.898438 C 37.433594 58.980469 39.675781 59.007812 41.917969 58.980469 C 41.917969 60.730469 41.917969 62.480469 41.917969 64.230469 C 40.167969 64.230469 38.417969 64.230469 36.667969 64.230469 C 36.667969 65.105469 36.667969 65.980469 36.667969 66.855469 C 48.042969 66.855469 59.417969 66.855469 70.792969 66.855469 C 70.792969 65.980469 70.792969 65.105469 70.792969 64.230469 C 69.042969 64.230469 67.292969 64.230469 65.542969 64.230469 C 65.542969 62.480469 65.542969 60.730469 65.542969 58.980469 C 67.785156 59.007812 70.027344 58.980469 72.269531 58.898438 C 74.921875 58.214844 76.589844 56.546875 77.273438 53.894531 C 77.355469 51.214844 77.382812 48.535156 77.355469 45.855469 C 78.230469 45.855469 79.105469 45.855469 79.980469 45.855469 C 79.980469 54.605469 79.980469 63.355469 79.980469 72.105469 C 54.605469 72.105469 29.230469 72.105469 3.855469 72.105469 C 3.855469 63.355469 3.855469 54.605469 3.855469 45.855469 Z M 18.128906 51.105469 C 21.25 51.175781 24.203125 51.914062 26.988281 53.320312 C 27.425781 53.59375 27.425781 53.867188 26.988281 54.140625 C 21.1875 57.089844 15.390625 57.089844 9.597656 54.140625 C 9.160156 53.867188 9.160156 53.59375 9.597656 53.320312 C 12.300781 51.960938 15.144531 51.222656 18.128906 51.105469 Z M 32.730469 51.105469 C 46.730469 51.105469 60.730469 51.105469 74.730469 51.105469 C 74.980469 53.53125 73.996094 55.199219 71.777344 56.109375 C 65.765625 56.296875 59.75 56.378906 53.730469 56.355469 C 47.710938 56.378906 41.695312 56.296875 35.683594 56.109375 C 33.464844 55.199219 32.480469 53.53125 32.730469 51.105469 Z M 9.105469 57.175781 C 15.175781 59.578125 21.246094 59.578125 27.316406 57.175781 C 27.539062 57.84375 27.511719 58.5 27.234375 59.144531 C 25.554688 60.214844 23.722656 60.898438 21.738281 61.195312 C 18.164062 61.800781 14.664062 61.472656 11.238281 60.210938 C 10.488281 59.902344 9.804688 59.492188 9.1875 58.980469 C 9.105469 58.382812 9.078125 57.78125 9.105469 57.175781 Z M 44.542969 58.980469 C 50.667969 58.980469 56.792969 58.980469 62.917969 58.980469 C 62.917969 60.730469 62.917969 62.480469 62.917969 64.230469 C 56.792969 64.230469 50.667969 64.230469 44.542969 64.230469 C 44.542969 62.480469 44.542969 60.730469 44.542969 58.980469 Z M 9.105469 62.425781 C 15.175781 64.828125 21.246094 64.828125 27.316406 62.425781 C 27.539062 63.09375 27.511719 63.75 27.234375 64.394531 C 25.554688 65.464844 23.722656 66.148438 21.738281 66.445312 C 18.164062 67.050781 14.664062 66.722656 11.238281 65.460938 C 10.488281 65.152344 9.804688 64.742188 9.1875 64.230469 C 9.105469 63.632812 9.078125 63.03125 9.105469 62.425781 Z M 3.855469 74.730469 C 29.230469 74.730469 54.605469 74.730469 79.980469 74.730469 C 79.980469 76.480469 79.980469 78.230469 79.980469 79.980469 C 54.605469 79.980469 29.230469 79.980469 3.855469 79.980469 C 3.855469 78.230469 3.855469 76.480469 3.855469 74.730469 Z M 3.855469 74.730469 "/>
</g>
<mask id="mask1">
  <g filter="url(#alpha)">
<rect x="0" y="0" width="84" height="84" style="fill:rgb(0%,0%,0%);fill-opacity:0.933333;stroke:none;"/>
  </g>
</mask>
<clipPath id="clip2">
  <rect x="0" y="0" width="84" height="84"/>
</clipPath>
<g id="surface8" clip-path="url(#clip2)">
<path style=" stroke:none;fill-rule:evenodd;fill:rgb(0%,0%,0%);fill-opacity:1;" d="M 76.207031 1.230469 C 78.644531 0.820312 80.3125 1.75 81.210938 4.019531 C 81.679688 7.074219 80.394531 8.769531 77.355469 9.105469 C 76.75 9.046875 76.148438 9.019531 75.550781 9.023438 C 73.9375 10.636719 72.324219 12.25 70.710938 13.863281 C 71.246094 15.921875 70.726562 17.644531 69.152344 19.03125 C 66.984375 20.082031 65.097656 19.726562 63.492188 17.964844 C 63.28125 17.601562 63.117188 17.21875 63 16.816406 C 62.921875 15.824219 62.921875 14.839844 63 13.863281 C 62.261719 13.125 61.523438 12.386719 60.785156 11.648438 C 59.691406 11.769531 58.597656 11.742188 57.503906 11.566406 C 55.710938 13.113281 53.988281 14.753906 52.335938 16.488281 C 52.414062 17.464844 52.414062 18.449219 52.335938 19.441406 C 51.441406 21.734375 49.773438 22.636719 47.332031 22.148438 C 45.0625 21.195312 44.078125 19.472656 44.378906 16.980469 C 42.957031 15.941406 41.535156 14.902344 40.113281 13.863281 C 37.988281 14.824219 36.15625 14.441406 34.617188 12.714844 C 33.378906 10.171875 33.953125 8.175781 36.339844 6.726562 C 38.960938 5.917969 40.792969 6.765625 41.835938 9.269531 C 41.863281 10.09375 41.945312 10.914062 42.082031 11.730469 C 43.503906 12.769531 44.925781 13.808594 46.347656 14.847656 C 46.65625 14.664062 46.984375 14.527344 47.332031 14.4375 C 48.324219 14.359375 49.308594 14.359375 50.285156 14.4375 C 51.898438 12.824219 53.511719 11.210938 55.125 9.597656 C 55.046875 8.621094 55.046875 7.636719 55.125 6.644531 C 56.167969 4.140625 58 3.292969 60.621094 4.101562 C 61.710938 4.644531 62.449219 5.492188 62.835938 6.644531 C 62.914062 7.636719 62.914062 8.621094 62.835938 9.597656 C 63.574219 10.335938 64.3125 11.074219 65.050781 11.8125 C 66.144531 11.691406 67.238281 11.71875 68.332031 11.894531 C 70.125 10.347656 71.847656 8.707031 73.5 6.972656 C 72.828125 4.273438 73.730469 2.359375 76.207031 1.230469 Z M 76.863281 4.019531 C 78.398438 3.996094 78.835938 4.679688 78.175781 6.070312 C 76.773438 6.617188 76.144531 6.152344 76.289062 4.675781 C 76.402344 4.371094 76.59375 4.152344 76.863281 4.019531 Z M 58.488281 6.644531 C 60.023438 6.621094 60.460938 7.304688 59.800781 8.695312 C 58.398438 9.242188 57.769531 8.777344 57.914062 7.300781 C 58.027344 6.996094 58.21875 6.777344 58.488281 6.644531 Z M 37.488281 9.269531 C 39.023438 9.246094 39.460938 9.929688 38.800781 11.320312 C 37.398438 11.867188 36.769531 11.402344 36.914062 9.925781 C 37.027344 9.621094 37.21875 9.402344 37.488281 9.269531 Z M 66.363281 14.519531 C 67.898438 14.496094 68.335938 15.179688 67.675781 16.570312 C 66.273438 17.117188 65.644531 16.652344 65.789062 15.175781 C 65.902344 14.871094 66.09375 14.652344 66.363281 14.519531 Z M 47.988281 17.144531 C 49.523438 17.121094 49.960938 17.804688 49.300781 19.195312 C 47.898438 19.742188 47.269531 19.277344 47.414062 17.800781 C 47.527344 17.496094 47.71875 17.277344 47.988281 17.144531 Z M 47.988281 17.144531 "/>
</g>
</defs>
<g id="surface1">
<use xlink:href="#surface5" mask="url(#mask0)"/>
<use xlink:href="#surface8" mask="url(#mask1)"/>
<path style=" stroke:none;fill-rule:evenodd;fill:rgb(0%,0%,0%);fill-opacity:1;" d="M 60.292969 30.105469 C 62.917969 30.105469 65.542969 30.105469 68.167969 30.105469 C 68.167969 34.480469 68.167969 38.855469 68.167969 43.230469 C 69.042969 43.230469 69.917969 43.230469 70.792969 43.230469 C 70.792969 44.105469 70.792969 44.980469 70.792969 45.855469 C 59.417969 45.855469 48.042969 45.855469 36.667969 45.855469 C 36.667969 44.980469 36.667969 44.105469 36.667969 43.230469 C 37.542969 43.230469 38.417969 43.230469 39.292969 43.230469 C 39.292969 39.730469 39.292969 36.230469 39.292969 32.730469 C 41.917969 32.730469 44.542969 32.730469 47.167969 32.730469 C 47.167969 36.230469 47.167969 39.730469 47.167969 43.230469 C 48.042969 43.230469 48.917969 43.230469 49.792969 43.230469 C 49.792969 40.605469 49.792969 37.980469 49.792969 35.355469 C 52.417969 35.355469 55.042969 35.355469 57.667969 35.355469 C 57.667969 37.980469 57.667969 40.605469 57.667969 43.230469 C 58.542969 43.230469 59.417969 43.230469 60.292969 43.230469 C 60.292969 38.855469 60.292969 34.480469 60.292969 30.105469 Z M 62.917969 32.730469 C 62.917969 36.230469 62.917969 39.730469 62.917969 43.230469 C 63.792969 43.230469 64.667969 43.230469 65.542969 43.230469 C 65.542969 39.730469 65.542969 36.230469 65.542969 32.730469 C 64.667969 32.730469 63.792969 32.730469 62.917969 32.730469 Z M 41.917969 35.355469 C 41.917969 37.980469 41.917969 40.605469 41.917969 43.230469 C 42.792969 43.230469 43.667969 43.230469 44.542969 43.230469 C 44.542969 40.605469 44.542969 37.980469 44.542969 35.355469 C 43.667969 35.355469 42.792969 35.355469 41.917969 35.355469 Z M 52.417969 37.980469 C 52.417969 39.730469 52.417969 41.480469 52.417969 43.230469 C 53.292969 43.230469 54.167969 43.230469 55.042969 43.230469 C 55.042969 41.480469 55.042969 39.730469 55.042969 37.980469 C 54.167969 37.980469 53.292969 37.980469 52.417969 37.980469 Z M 52.417969 37.980469 "/>
</g>
</svg>
