<?xml version="1.0" encoding="UTF-8"?>
<svg xmlns="http://www.w3.org/2000/svg" xmlns:xlink="http://www.w3.org/1999/xlink" width="84px" height="84px" viewBox="0 0 84 84" version="1.1">
<defs>
<filter id="alpha" filterUnits="objectBoundingBox" x="0%" y="0%" width="100%" height="100%">
  <feColorMatrix type="matrix" in="SourceGraphic" values="0 0 0 0 1 0 0 0 0 1 0 0 0 0 1 0 0 0 1 0"/>
</filter>
<mask id="mask0">
  <g filter="url(#alpha)">
<rect x="0" y="0" width="84" height="84" style="fill:rgb(0%,0%,0%);fill-opacity:0.945098;stroke:none;"/>
  </g>
</mask>
<clipPath id="clip1">
  <rect x="0" y="0" width="84" height="84"/>
</clipPath>
<g id="surface5" clip-path="url(#clip1)">
<path style=" stroke:none;fill-rule:evenodd;fill:rgb(0%,0%,0%);fill-opacity:1;" d="M 26.988281 -0.0820312 C 27.699219 -0.0820312 28.410156 -0.0820312 29.121094 -0.0820312 C 30.996094 0.535156 32.199219 1.792969 32.730469 3.691406 C 35.464844 3.691406 38.199219 3.691406 40.933594 3.691406 C 41.472656 1.785156 42.675781 0.527344 44.542969 -0.0820312 C 45.417969 -0.0820312 46.292969 -0.0820312 47.167969 -0.0820312 C 50.128906 1.054688 51.441406 3.214844 51.105469 6.398438 C 55.679688 9.027344 60.273438 11.625 64.886719 14.191406 C 67.046875 12.453125 69.34375 12.261719 71.777344 13.617188 C 72.675781 14.378906 73.332031 15.308594 73.746094 16.40625 C 75.714844 16.515625 77.683594 16.515625 79.652344 16.40625 C 78.789062 15.722656 78.625 14.902344 79.160156 13.945312 C 79.480469 13.792969 79.808594 13.65625 80.144531 13.535156 C 80.480469 13.65625 80.808594 13.792969 81.128906 13.945312 C 82.035156 14.988281 82.964844 16 83.917969 16.980469 C 83.917969 17.582031 83.917969 18.183594 83.917969 18.785156 C 82.972656 19.8125 81.988281 20.824219 80.964844 21.820312 C 79.242188 22.285156 78.613281 21.65625 79.078125 19.933594 C 79.324219 19.6875 79.570312 19.441406 79.816406 19.195312 C 77.792969 19.085938 75.769531 19.085938 73.746094 19.195312 C 72.5625 22.195312 70.375 23.398438 67.183594 22.804688 C 66.46875 22.597656 65.835938 22.242188 65.296875 21.738281 C 63.792969 23.351562 62.289062 24.964844 60.785156 26.578125 C 62.925781 30.066406 65.085938 33.539062 67.265625 36.996094 C 70.417969 36.34375 72.578125 37.519531 73.746094 40.523438 C 75.769531 40.632812 77.792969 40.632812 79.816406 40.523438 C 79.039062 40.039062 78.738281 39.355469 78.914062 38.472656 C 79.277344 37.757812 79.851562 37.511719 80.636719 37.734375 C 81.878906 38.730469 82.972656 39.851562 83.917969 41.097656 C 83.917969 41.644531 83.917969 42.191406 83.917969 42.738281 C 82.960938 44.050781 81.8125 45.171875 80.472656 46.101562 C 79.214844 46.210938 78.695312 45.636719 78.914062 44.378906 C 79.152344 43.976562 79.453125 43.621094 79.816406 43.3125 C 77.792969 43.203125 75.769531 43.203125 73.746094 43.3125 C 72.578125 46.316406 70.417969 47.492188 67.265625 46.839844 C 65.300781 49.972656 63.359375 53.117188 61.441406 56.273438 C 62.960938 58.070312 64.570312 59.792969 66.28125 61.441406 C 68.664062 60.386719 70.796875 60.769531 72.679688 62.589844 C 73.101562 63.238281 73.457031 63.921875 73.746094 64.640625 C 75.769531 64.75 77.792969 64.75 79.816406 64.640625 C 78.664062 63.8125 78.554688 62.882812 79.488281 61.851562 C 80.003906 61.722656 80.496094 61.777344 80.964844 62.015625 C 81.988281 63.011719 82.972656 64.023438 83.917969 65.050781 C 83.917969 65.652344 83.917969 66.253906 83.917969 66.855469 C 82.964844 67.835938 82.035156 68.847656 81.128906 69.890625 C 80.261719 70.441406 79.523438 70.304688 78.914062 69.480469 C 78.675781 68.625 78.921875 67.941406 79.652344 67.429688 C 77.683594 67.320312 75.714844 67.320312 73.746094 67.429688 C 72.101562 70.984375 69.476562 71.96875 65.871094 70.382812 C 65.574219 70.097656 65.246094 69.851562 64.886719 69.644531 C 60.273438 72.210938 55.679688 74.808594 51.105469 77.4375 C 50.972656 78.328125 50.890625 79.230469 50.859375 80.144531 C 50.492188 80.710938 49.972656 80.929688 49.300781 80.800781 C 49.039062 80.621094 48.792969 80.402344 48.5625 80.144531 C 48.71875 78.839844 48.363281 77.71875 47.496094 76.78125 C 45.667969 75.707031 44.273438 76.117188 43.3125 78.011719 C 43.085938 79.386719 43.550781 80.453125 44.707031 81.210938 C 45.476562 81.363281 46.242188 81.527344 47.003906 81.703125 C 47.152344 81.972656 47.316406 82.21875 47.496094 82.441406 C 47.570312 83.074219 47.351562 83.566406 46.839844 83.917969 C 46.074219 83.917969 45.308594 83.917969 44.542969 83.917969 C 42.671875 83.304688 41.46875 82.046875 40.933594 80.144531 C 38.253906 80.117188 35.574219 80.144531 32.894531 80.226562 C 32.191406 82.050781 30.933594 83.28125 29.121094 83.917969 C 28.246094 83.917969 27.371094 83.917969 26.496094 83.917969 C 23.574219 82.804688 22.371094 80.699219 22.886719 77.601562 C 18.210938 74.90625 13.507812 72.253906 8.777344 69.644531 C 7.027344 71.164062 5.058594 71.519531 2.871094 70.710938 C 1.382812 70.015625 0.398438 68.894531 -0.0820312 67.347656 C -0.0820312 66.472656 -0.0820312 65.597656 -0.0820312 64.722656 C 1.355469 61.214844 3.871094 60.121094 7.464844 61.441406 C 9.136719 59.742188 10.777344 58.019531 12.386719 56.273438 C 10.410156 53.113281 8.414062 49.96875 6.398438 46.839844 C 3.191406 47.484375 1.03125 46.28125 -0.0820312 43.230469 C -0.0820312 42.355469 -0.0820312 41.480469 -0.0820312 40.605469 C 1.03125 37.554688 3.191406 36.351562 6.398438 36.996094 C 8.582031 33.535156 10.742188 30.0625 12.878906 26.578125 C 11.378906 24.96875 9.875 23.351562 8.367188 21.738281 C 5.90625 23.554688 3.527344 23.445312 1.230469 21.410156 C 0.617188 20.730469 0.179688 19.964844 -0.0820312 19.113281 C -0.0820312 18.238281 -0.0820312 17.363281 -0.0820312 16.488281 C 1.183594 13.367188 3.480469 12.191406 6.808594 12.960938 C 7.53125 13.273438 8.1875 13.683594 8.777344 14.191406 C 13.507812 11.582031 18.210938 8.929688 22.886719 6.234375 C 22.660156 5.277344 22.6875 4.320312 22.96875 3.363281 C 23.320312 2.796875 23.839844 2.578125 24.527344 2.707031 C 24.796875 2.949219 25.042969 3.222656 25.265625 3.527344 C 24.949219 4.863281 25.25 6.039062 26.167969 7.054688 C 28.089844 8.160156 29.484375 7.695312 30.351562 5.660156 C 30.621094 4.3125 30.15625 3.300781 28.957031 2.625 C 28.234375 2.492188 27.523438 2.328125 26.824219 2.132812 C 26.613281 1.902344 26.449219 1.65625 26.332031 1.394531 C 26.246094 0.746094 26.464844 0.253906 26.988281 -0.0820312 Z M 32.894531 6.316406 C 35.574219 6.316406 38.253906 6.316406 40.933594 6.316406 C 41.027344 6.710938 41.109375 7.09375 41.179688 7.464844 C 39.703125 9.050781 38.226562 10.636719 36.75 12.222656 C 35.269531 10.796875 33.847656 9.320312 32.484375 7.792969 C 32.519531 7.28125 32.65625 6.789062 32.894531 6.316406 Z M 23.707031 8.941406 C 21.679688 12.472656 19.546875 15.945312 17.308594 19.359375 C 14.898438 18.894531 12.492188 18.375 10.089844 17.800781 C 10.042969 17.316406 10.097656 16.851562 10.253906 16.40625 C 14.722656 13.871094 19.207031 11.382812 23.707031 8.941406 Z M 49.957031 8.941406 C 54.566406 11.4375 59.160156 13.980469 63.738281 16.570312 C 63.585938 16.960938 63.53125 17.371094 63.574219 17.800781 C 61.171875 18.375 58.765625 18.894531 56.355469 19.359375 C 54.179688 15.902344 52.046875 12.429688 49.957031 8.941406 Z M 42.902344 9.433594 C 44.292969 10.074219 45.742188 10.238281 47.25 9.925781 C 49.472656 13.300781 51.632812 16.71875 53.730469 20.179688 C 52.695312 20.4375 51.65625 20.683594 50.613281 20.917969 C 48.671875 18.367188 46.210938 17.683594 43.230469 18.867188 C 41.640625 17.332031 40.109375 15.746094 38.636719 14.109375 C 40.09375 12.570312 41.515625 11.011719 42.902344 9.433594 Z M 30.105469 9.597656 C 30.277344 9.574219 30.441406 9.601562 30.597656 9.679688 C 31.960938 11.207031 33.382812 12.683594 34.863281 14.109375 C 33.359375 15.722656 31.855469 17.335938 30.351562 18.949219 C 27.503906 17.671875 25.179688 18.300781 23.378906 20.835938 C 22.257812 20.746094 21.164062 20.5 20.097656 20.097656 C 22.148438 16.761719 24.199219 13.425781 26.25 10.089844 C 27.175781 10.101562 28.128906 10.074219 29.121094 10.007812 C 29.484375 9.914062 29.8125 9.777344 30.105469 9.597656 Z M 36.667969 15.996094 C 38.214844 17.625 39.800781 19.238281 41.425781 20.835938 C 41.097656 21.246094 40.933594 21.710938 40.933594 22.230469 C 38.214844 22.285156 35.507812 22.230469 32.8125 22.066406 C 32.6875 21.625 32.496094 21.214844 32.238281 20.835938 C 33.75 19.242188 35.226562 17.628906 36.667969 15.996094 Z M 11.238281 20.917969 C 11.25 20.828125 11.304688 20.773438 11.402344 20.753906 C 12.90625 21.09375 14.382812 21.503906 15.832031 21.984375 C 15.304688 22.679688 14.839844 23.417969 14.4375 24.199219 C 13.332031 23.121094 12.265625 22.027344 11.238281 20.917969 Z M 62.097656 20.753906 C 62.347656 20.757812 62.429688 20.867188 62.34375 21.082031 C 61.300781 22.070312 60.316406 23.109375 59.390625 24.199219 C 58.792969 23.5 58.355469 22.734375 58.078125 21.902344 C 59.4375 21.527344 60.777344 21.144531 62.097656 20.753906 Z M 18.457031 22.558594 C 19.878906 22.886719 21.300781 23.214844 22.722656 23.542969 C 22.738281 24.273438 22.820312 24.984375 22.96875 25.675781 C 21.601562 26.769531 20.234375 27.863281 18.867188 28.957031 C 18.050781 28.003906 17.203125 27.074219 16.324219 26.167969 C 17.042969 24.960938 17.753906 23.757812 18.457031 22.558594 Z M 54.714844 22.558594 C 54.933594 22.53125 55.125 22.585938 55.289062 22.722656 C 55.972656 23.871094 56.65625 25.019531 57.339844 26.167969 C 56.582031 27.171875 55.734375 28.101562 54.796875 28.957031 C 53.410156 27.789062 52.015625 26.640625 50.613281 25.511719 C 50.832031 24.890625 50.996094 24.261719 51.105469 23.625 C 52.324219 23.265625 53.527344 22.910156 54.714844 22.558594 Z M 32.894531 24.691406 C 35.574219 24.691406 38.253906 24.691406 40.933594 24.691406 C 40.933594 25.210938 41.097656 25.675781 41.425781 26.085938 C 39.863281 27.59375 38.359375 29.152344 36.914062 30.761719 C 35.355469 29.203125 33.796875 27.644531 32.238281 26.085938 C 32.523438 25.648438 32.742188 25.183594 32.894531 24.691406 Z M 24.691406 27.644531 C 26.511719 28.808594 28.398438 28.917969 30.351562 27.972656 C 31.773438 29.394531 33.195312 30.816406 34.617188 32.238281 C 34.777344 32.445312 34.832031 32.664062 34.78125 32.894531 C 33.328125 34.292969 31.933594 35.742188 30.597656 37.242188 C 29.210938 36.917969 27.789062 36.753906 26.332031 36.75 C 24.472656 34.78125 22.613281 32.8125 20.753906 30.84375 C 22.144531 29.863281 23.457031 28.796875 24.691406 27.644531 Z M 48.808594 27.644531 C 50.207031 28.699219 51.574219 29.792969 52.910156 30.925781 C 51.054688 32.972656 49.167969 34.996094 47.25 36.996094 C 46.800781 36.890625 46.335938 36.835938 45.855469 36.832031 C 44.941406 36.820312 44.066406 36.957031 43.230469 37.242188 C 41.78125 35.792969 40.332031 34.34375 38.882812 32.894531 C 40.125 31.15625 41.574219 29.542969 43.230469 28.054688 C 44.777344 28.722656 46.363281 28.777344 47.988281 28.21875 C 48.332031 28.105469 48.605469 27.914062 48.808594 27.644531 Z M 14.683594 28.628906 C 14.804688 28.605469 14.914062 28.636719 15.011719 28.710938 C 15.574219 29.398438 16.175781 30.054688 16.816406 30.679688 C 14.746094 32.257812 12.722656 33.898438 10.746094 35.601562 C 10.636719 35.710938 10.527344 35.710938 10.417969 35.601562 C 11.90625 33.308594 13.328125 30.984375 14.683594 28.628906 Z M 63.082031 35.519531 C 60.988281 33.945312 58.910156 32.332031 56.847656 30.679688 C 57.539062 30.015625 58.195312 29.332031 58.816406 28.628906 C 60.324219 30.878906 61.746094 33.175781 63.082031 35.519531 Z M 18.621094 32.566406 C 20.421875 34.394531 22.199219 36.253906 23.953125 38.144531 C 23.519531 38.902344 23.164062 39.722656 22.886719 40.605469 C 18.566406 40.605469 14.246094 40.605469 9.925781 40.605469 C 9.9375 40.371094 9.882812 40.152344 9.761719 39.949219 C 9.949219 39.679688 10.167969 39.433594 10.417969 39.210938 C 13.183594 37.019531 15.917969 34.804688 18.621094 32.566406 Z M 54.878906 32.730469 C 55.050781 32.707031 55.214844 32.734375 55.371094 32.8125 C 58.160156 35.082031 60.949219 37.351562 63.738281 39.621094 C 63.859375 39.933594 63.859375 40.261719 63.738281 40.605469 C 59.417969 40.605469 55.097656 40.605469 50.777344 40.605469 C 50.746094 40.265625 50.664062 39.9375 50.53125 39.621094 C 50.203125 39.125 49.929688 38.632812 49.710938 38.144531 C 51.527344 36.410156 53.25 34.605469 54.878906 32.730469 Z M 36.667969 34.699219 C 38.292969 36.078125 39.851562 37.554688 41.34375 39.128906 C 41.214844 39.609375 41.078125 40.101562 40.933594 40.605469 C 38.214844 40.660156 35.507812 40.605469 32.8125 40.441406 C 32.597656 40.015625 32.488281 39.578125 32.484375 39.128906 C 33.851562 37.625 35.246094 36.148438 36.667969 34.699219 Z M 9.925781 43.230469 C 14.246094 43.230469 18.566406 43.230469 22.886719 43.230469 C 23.03125 43.734375 23.167969 44.226562 23.296875 44.707031 C 21.488281 46.648438 19.65625 48.5625 17.800781 50.449219 C 15.023438 48.382812 12.34375 46.195312 9.761719 43.886719 C 9.882812 43.683594 9.9375 43.464844 9.925781 43.230469 Z M 32.894531 43.230469 C 35.574219 43.230469 38.253906 43.230469 40.933594 43.230469 C 41.078125 43.734375 41.214844 44.226562 41.34375 44.707031 C 39.863281 46.214844 38.359375 47.691406 36.832031 49.136719 C 35.296875 47.738281 33.847656 46.261719 32.484375 44.707031 C 32.519531 44.195312 32.65625 43.703125 32.894531 43.230469 Z M 50.777344 43.230469 C 55.097656 43.230469 59.417969 43.230469 63.738281 43.230469 C 63.859375 43.574219 63.859375 43.902344 63.738281 44.214844 C 61.164062 46.328125 58.566406 48.40625 55.945312 50.449219 C 54.011719 48.570312 52.125 46.628906 50.285156 44.625 C 50.5625 44.199219 50.726562 43.734375 50.777344 43.230469 Z M 25.183594 46.511719 C 26.015625 46.878906 26.890625 47.042969 27.808594 47.003906 C 28.769531 46.980469 29.699219 46.84375 30.597656 46.59375 C 31.933594 48.09375 33.328125 49.542969 34.78125 50.941406 C 34.832031 51.171875 34.777344 51.390625 34.617188 51.597656 C 33.195312 53.019531 31.773438 54.441406 30.351562 55.863281 C 28.425781 54.910156 26.566406 55.019531 24.773438 56.191406 C 23.113281 54.914062 21.5 53.574219 19.933594 52.171875 C 21.71875 50.304688 23.46875 48.417969 25.183594 46.511719 Z M 43.230469 46.511719 C 44.0625 46.878906 44.9375 47.042969 45.855469 47.003906 C 46.769531 47.015625 47.644531 46.878906 48.480469 46.59375 C 50.261719 48.457031 52.011719 50.34375 53.730469 52.253906 C 52.140625 53.597656 50.527344 54.910156 48.890625 56.191406 C 47.996094 55.523438 46.984375 55.195312 45.855469 55.207031 C 44.925781 55.25 44.050781 55.441406 43.230469 55.78125 C 41.664062 54.296875 40.1875 52.738281 38.800781 51.105469 C 40.28125 49.570312 41.757812 48.039062 43.230469 46.511719 Z M 10.417969 48.316406 C 10.484375 48.148438 10.59375 48.121094 10.746094 48.234375 C 12.496094 49.65625 14.246094 51.078125 15.996094 52.5 C 15.421875 53.074219 14.847656 53.648438 14.273438 54.222656 C 13.023438 52.214844 11.738281 50.246094 10.417969 48.316406 Z M 63.082031 48.316406 C 61.980469 50.25 60.832031 52.164062 59.636719 54.058594 C 59.554688 54.226562 59.445312 54.253906 59.308594 54.140625 C 58.84375 53.675781 58.378906 53.210938 57.914062 52.746094 C 57.804688 52.636719 57.804688 52.527344 57.914062 52.417969 C 59.621094 51.011719 61.34375 49.644531 63.082031 48.316406 Z M 36.832031 53.074219 C 38.324219 54.648438 39.855469 56.207031 41.425781 57.75 C 41.097656 58.160156 40.933594 58.625 40.933594 59.144531 C 38.214844 59.199219 35.507812 59.144531 32.8125 58.980469 C 32.6875 58.539062 32.496094 58.128906 32.238281 57.75 C 33.804688 56.214844 35.332031 54.65625 36.832031 53.074219 Z M 17.964844 54.222656 C 19.652344 55.5 21.320312 56.8125 22.96875 58.160156 C 22.820312 58.851562 22.738281 59.5625 22.722656 60.292969 C 21.375 60.582031 20.035156 60.910156 18.703125 61.277344 C 17.621094 59.828125 16.664062 58.296875 15.832031 56.683594 C 16.480469 55.816406 17.191406 54.996094 17.964844 54.222656 Z M 55.535156 54.222656 C 56.40625 54.984375 57.226562 55.804688 57.996094 56.683594 C 57.066406 58.289062 56.054688 59.820312 54.960938 61.277344 C 53.664062 60.960938 52.378906 60.605469 51.105469 60.210938 C 50.953125 59.519531 50.816406 58.835938 50.695312 58.160156 C 52.339844 56.871094 53.953125 55.558594 55.535156 54.222656 Z M 13.699219 58.652344 C 14.386719 59.722656 15.097656 60.789062 15.832031 61.851562 C 14 62.40625 12.140625 62.898438 10.253906 63.328125 C 9.980469 63.4375 9.707031 63.4375 9.433594 63.328125 C 10.890625 61.789062 12.3125 60.230469 13.699219 58.652344 Z M 59.800781 58.652344 C 61.210938 60.144531 62.660156 61.621094 64.148438 63.082031 C 64.257812 63.246094 64.257812 63.410156 64.148438 63.574219 C 62.125 63.027344 60.101562 62.480469 58.078125 61.933594 C 58.601562 60.835938 59.175781 59.742188 59.800781 58.652344 Z M 32.894531 61.605469 C 35.574219 61.605469 38.253906 61.605469 40.933594 61.605469 C 40.933594 62.125 41.097656 62.589844 41.425781 63 C 39.863281 64.507812 38.359375 66.066406 36.914062 67.675781 C 35.355469 66.117188 33.796875 64.558594 32.238281 63 C 32.523438 62.5625 32.742188 62.097656 32.894531 61.605469 Z M 22.722656 62.917969 C 22.949219 62.890625 23.167969 62.917969 23.378906 63 C 25.179688 65.535156 27.503906 66.164062 30.351562 64.886719 C 31.71875 66.253906 33.085938 67.621094 34.453125 68.988281 C 34.664062 69.242188 34.773438 69.515625 34.78125 69.808594 C 33.328125 71.207031 31.933594 72.65625 30.597656 74.15625 C 29.699219 73.90625 28.769531 73.769531 27.808594 73.746094 C 27.328125 73.75 26.863281 73.804688 26.414062 73.910156 C 24.265625 70.546875 22.160156 67.15625 20.097656 63.738281 C 20.988281 63.460938 21.867188 63.1875 22.722656 62.917969 Z M 50.285156 62.917969 C 51.441406 63.109375 52.589844 63.355469 53.730469 63.65625 C 51.632812 67.117188 49.472656 70.535156 47.25 73.910156 C 46.800781 73.804688 46.335938 73.75 45.855469 73.746094 C 44.941406 73.734375 44.066406 73.871094 43.230469 74.15625 C 41.78125 72.707031 40.332031 71.257812 38.882812 69.808594 C 40.125 68.070312 41.574219 66.457031 43.230469 64.96875 C 44.082031 65.304688 44.984375 65.496094 45.9375 65.542969 C 47.933594 65.519531 49.378906 64.644531 50.285156 62.917969 Z M 23.707031 74.894531 C 19.207031 72.453125 14.722656 69.964844 10.253906 67.429688 C 10.097656 66.984375 10.042969 66.519531 10.089844 66.035156 C 12.492188 65.460938 14.898438 64.941406 17.308594 64.476562 C 19.546875 67.890625 21.679688 71.363281 23.707031 74.894531 Z M 49.957031 74.894531 C 52.046875 71.40625 54.179688 67.933594 56.355469 64.476562 C 58.765625 64.941406 61.171875 65.460938 63.574219 66.035156 C 63.53125 66.464844 63.585938 66.875 63.738281 67.265625 C 59.160156 69.855469 54.566406 72.398438 49.957031 74.894531 Z M 36.667969 71.613281 C 38.292969 72.992188 39.851562 74.46875 41.34375 76.042969 C 41.214844 76.523438 41.078125 77.015625 40.933594 77.519531 C 38.214844 77.574219 35.507812 77.519531 32.8125 77.355469 C 32.597656 76.929688 32.488281 76.492188 32.484375 76.042969 C 33.851562 74.539062 35.246094 73.0625 36.667969 71.613281 Z M 36.667969 71.613281 "/>
</g>
<mask id="mask1">
  <g filter="url(#alpha)">
<rect x="0" y="0" width="84" height="84" style="fill:rgb(0%,0%,0%);fill-opacity:0.996078;stroke:none;"/>
  </g>
</mask>
<clipPath id="clip2">
  <rect x="0" y="0" width="84" height="84"/>
</clipPath>
<g id="surface8" clip-path="url(#clip2)">
<path style=" stroke:none;fill-rule:evenodd;fill:rgb(76.862745%,92.156863%,97.647059%);fill-opacity:1;" d="M 26.332031 1.394531 C 26.449219 1.65625 26.613281 1.902344 26.824219 2.132812 C 27.523438 2.328125 28.234375 2.492188 28.957031 2.625 C 30.15625 3.300781 30.621094 4.3125 30.351562 5.660156 C 29.484375 7.695312 28.089844 8.160156 26.167969 7.054688 C 25.25 6.039062 24.949219 4.863281 25.265625 3.527344 C 25.042969 3.222656 24.796875 2.949219 24.527344 2.707031 C 24.929688 2.386719 25.3125 2.03125 25.675781 1.640625 C 25.878906 1.511719 26.097656 1.429688 26.332031 1.394531 Z M 26.332031 1.394531 "/>
</g>
<mask id="mask2">
  <g filter="url(#alpha)">
<rect x="0" y="0" width="84" height="84" style="fill:rgb(0%,0%,0%);fill-opacity:0.996078;stroke:none;"/>
  </g>
</mask>
<clipPath id="clip3">
  <rect x="0" y="0" width="84" height="84"/>
</clipPath>
<g id="surface11" clip-path="url(#clip3)">
<path style=" stroke:none;fill-rule:evenodd;fill:rgb(98.039216%,80.392157%,34.901961%);fill-opacity:1;" d="M 49.300781 80.800781 C 48.910156 81.574219 48.308594 82.121094 47.496094 82.441406 C 47.316406 82.21875 47.152344 81.972656 47.003906 81.703125 C 46.242188 81.527344 45.476562 81.363281 44.707031 81.210938 C 43.550781 80.453125 43.085938 79.386719 43.3125 78.011719 C 44.273438 76.117188 45.667969 75.707031 47.496094 76.78125 C 48.363281 77.71875 48.71875 78.839844 48.5625 80.144531 C 48.792969 80.402344 49.039062 80.621094 49.300781 80.800781 Z M 49.300781 80.800781 "/>
</g>
</defs>
<g id="surface1">
<use xlink:href="#surface5" mask="url(#mask0)"/>
<use xlink:href="#surface8" mask="url(#mask1)"/>
<path style=" stroke:none;fill-rule:evenodd;fill:rgb(97.647059%,80%,34.901961%);fill-opacity:1;" d="M 45.035156 2.378906 C 47.464844 2.265625 48.585938 3.414062 48.398438 5.824219 C 47.519531 7.617188 46.179688 8.082031 44.378906 7.21875 C 42.667969 5.332031 42.886719 3.71875 45.035156 2.378906 Z M 45.035156 2.378906 "/>
<path style=" stroke:none;fill-rule:evenodd;fill:rgb(97.254902%,49.019608%,51.764706%);fill-opacity:1;" d="M 4.347656 15.175781 C 6.703125 15.152344 7.769531 16.300781 7.546875 18.621094 C 6.667969 20.414062 5.328125 20.878906 3.527344 20.015625 C 2.058594 18.648438 2.003906 17.226562 3.363281 15.75 C 3.730469 15.59375 4.058594 15.402344 4.347656 15.175781 Z M 4.347656 15.175781 "/>
<path style=" stroke:none;fill-rule:evenodd;fill:rgb(42.352941%,82.352941%,62.352941%);fill-opacity:1;" d="M 68.003906 15.175781 C 70.578125 15.207031 71.589844 16.464844 71.039062 18.949219 C 70.351562 20.238281 69.285156 20.703125 67.839844 20.34375 C 65.863281 19.226562 65.535156 17.75 66.855469 15.914062 C 67.25 15.664062 67.632812 15.417969 68.003906 15.175781 Z M 68.003906 15.175781 "/>
<path style=" stroke:none;fill-rule:evenodd;fill:rgb(76.862745%,92.156863%,97.647059%);fill-opacity:1;" d="M 26.824219 20.917969 C 29.585938 20.644531 30.707031 21.847656 30.1875 24.527344 C 29.472656 25.90625 28.351562 26.371094 26.824219 25.921875 C 24.640625 24.25 24.640625 22.582031 26.824219 20.917969 Z M 26.824219 20.917969 "/>
<path style=" stroke:none;fill-rule:evenodd;fill:rgb(98.431373%,80.392157%,34.901961%);fill-opacity:1;" d="M 44.871094 20.917969 C 47.628906 20.640625 48.75 21.84375 48.234375 24.527344 C 47.5 25.847656 46.378906 26.3125 44.871094 25.921875 C 43.136719 24.851562 42.808594 23.457031 43.886719 21.738281 C 44.222656 21.457031 44.550781 21.183594 44.871094 20.917969 Z M 44.871094 20.917969 "/>
<path style=" stroke:none;fill-rule:evenodd;fill:rgb(97.647059%,80%,34.509804%);fill-opacity:1;" d="M 45.035156 39.292969 C 47.464844 39.179688 48.585938 40.328125 48.398438 42.738281 C 47.523438 44.53125 46.183594 44.992188 44.378906 44.132812 C 42.71875 42.265625 42.9375 40.652344 45.035156 39.292969 Z M 45.035156 39.292969 "/>
<path style=" stroke:none;fill-rule:evenodd;fill:rgb(42.352941%,82.352941%,62.352941%);fill-opacity:1;" d="M 67.839844 39.292969 C 70.191406 39.15625 71.3125 40.25 71.203125 42.574219 C 70.527344 44.320312 69.296875 44.894531 67.511719 44.296875 C 65.464844 42.480469 65.574219 40.8125 67.839844 39.292969 Z M 67.839844 39.292969 "/>
<path style=" stroke:none;fill-rule:evenodd;fill:rgb(97.254902%,49.019608%,51.764706%);fill-opacity:1;" d="M 4.183594 39.292969 C 6.835938 39.238281 7.902344 40.496094 7.382812 43.066406 C 6.40625 44.507812 5.121094 44.863281 3.527344 44.132812 C 1.816406 42.246094 2.035156 40.632812 4.183594 39.292969 Z M 4.183594 39.292969 "/>
<path style=" stroke:none;fill-rule:evenodd;fill:rgb(76.862745%,91.764706%,97.647059%);fill-opacity:1;" d="M 26.988281 39.292969 C 29.339844 39.15625 30.460938 40.25 30.351562 42.574219 C 29.671875 44.324219 28.441406 44.898438 26.660156 44.296875 C 25.367188 43.429688 24.957031 42.253906 25.429688 40.769531 C 25.824219 40.128906 26.34375 39.636719 26.988281 39.292969 Z M 26.988281 39.292969 "/>
<path style=" stroke:none;fill-rule:evenodd;fill:rgb(77.254902%,92.156863%,98.039216%);fill-opacity:1;" d="M 26.824219 57.832031 C 29.265625 57.5 30.441406 58.539062 30.351562 60.949219 C 29.785156 62.65625 28.609375 63.285156 26.824219 62.835938 C 24.640625 61.164062 24.640625 59.496094 26.824219 57.832031 Z M 26.824219 57.832031 "/>
<path style=" stroke:none;fill-rule:evenodd;fill:rgb(98.431373%,80.392157%,34.901961%);fill-opacity:1;" d="M 44.871094 57.832031 C 47.574219 57.609375 48.695312 58.8125 48.234375 61.441406 C 47.5 62.761719 46.378906 63.226562 44.871094 62.835938 C 42.707031 61.183594 42.707031 59.515625 44.871094 57.832031 Z M 44.871094 57.832031 "/>
<path style=" stroke:none;fill-rule:evenodd;fill:rgb(97.254902%,49.019608%,51.764706%);fill-opacity:1;" d="M 4.183594 63.410156 C 6.453125 63.246094 7.574219 64.285156 7.546875 66.527344 C 7.058594 68.097656 5.992188 68.78125 4.347656 68.578125 C 2.535156 67.738281 2.015625 66.398438 2.789062 64.558594 C 3.191406 64.074219 3.65625 63.691406 4.183594 63.410156 Z M 4.183594 63.410156 "/>
<path style=" stroke:none;fill-rule:evenodd;fill:rgb(42.352941%,82.352941%,62.352941%);fill-opacity:1;" d="M 67.839844 63.410156 C 70.246094 63.21875 71.367188 64.3125 71.203125 66.691406 C 70.628906 68.140625 69.5625 68.769531 68.003906 68.578125 C 66.195312 67.742188 65.675781 66.402344 66.445312 64.558594 C 66.847656 64.074219 67.3125 63.691406 67.839844 63.410156 Z M 67.839844 63.410156 "/>
<path style=" stroke:none;fill-rule:evenodd;fill:rgb(76.470588%,91.764706%,97.254902%);fill-opacity:1;" d="M 26.988281 76.207031 C 29.417969 76.09375 30.539062 77.242188 30.351562 79.652344 C 29.582031 81.28125 28.351562 81.800781 26.660156 81.210938 C 25.367188 80.34375 24.957031 79.167969 25.429688 77.683594 C 25.824219 77.042969 26.34375 76.550781 26.988281 76.207031 Z M 26.988281 76.207031 "/>
<use xlink:href="#surface11" mask="url(#mask2)"/>
</g>
</svg>
