<?xml version="1.0" encoding="UTF-8"?>
<svg xmlns="http://www.w3.org/2000/svg" xmlns:xlink="http://www.w3.org/1999/xlink" width="84px" height="84px" viewBox="0 0 84 84" version="1.1">
<defs>
<filter id="alpha" filterUnits="objectBoundingBox" x="0%" y="0%" width="100%" height="100%">
  <feColorMatrix type="matrix" in="SourceGraphic" values="0 0 0 0 1 0 0 0 0 1 0 0 0 0 1 0 0 0 1 0"/>
</filter>
<mask id="mask0">
  <g filter="url(#alpha)">
<rect x="0" y="0" width="84" height="84" style="fill:rgb(0%,0%,0%);fill-opacity:0.909804;stroke:none;"/>
  </g>
</mask>
<clipPath id="clip1">
  <rect x="0" y="0" width="84" height="84"/>
</clipPath>
<g id="surface5" clip-path="url(#clip1)">
<path style=" stroke:none;fill-rule:evenodd;fill:rgb(0%,0%,0%);fill-opacity:1;" d="M 83.917969 37.324219 C 83.917969 40.496094 83.917969 43.667969 83.917969 46.839844 C 83.464844 47.8125 82.753906 48.550781 81.785156 49.054688 C 79.789062 49.492188 77.792969 49.902344 75.796875 50.285156 C 75.019531 53.296875 73.84375 56.140625 72.269531 58.816406 C 73.605469 60.511719 74.78125 62.316406 75.796875 64.230469 C 76.050781 64.871094 76.050781 65.527344 75.796875 66.199219 C 75.441406 66.910156 75.003906 67.566406 74.484375 68.167969 C 72.761719 69.890625 71.039062 71.613281 69.316406 73.335938 C 68.21875 74.144531 67.015625 74.363281 65.707031 73.992188 C 63.894531 72.945312 62.171875 71.769531 60.539062 70.464844 C 57.890625 72.050781 55.074219 73.25 52.089844 74.074219 C 51.644531 76.152344 51.179688 78.230469 50.695312 80.308594 C 50.285156 80.9375 49.765625 81.457031 49.136719 81.867188 C 46.742188 82.054688 44.335938 82.136719 41.917969 82.113281 C 39.5 82.136719 37.09375 82.054688 34.699219 81.867188 C 34.070312 81.457031 33.550781 80.9375 33.140625 80.308594 C 32.65625 78.230469 32.191406 76.152344 31.746094 74.074219 C 28.761719 73.25 25.945312 72.050781 23.296875 70.464844 C 21.503906 71.921875 19.5625 73.152344 17.472656 74.15625 C 16.730469 74.277344 16.019531 74.167969 15.339844 73.828125 C 12.910156 71.78125 10.640625 69.566406 8.53125 67.183594 C 7.917969 66.082031 7.808594 64.933594 8.203125 63.738281 C 9.285156 62.070312 10.40625 60.429688 11.566406 58.816406 C 9.992188 56.140625 8.816406 53.296875 8.039062 50.285156 C 5.925781 49.882812 3.820312 49.417969 1.722656 48.890625 C 0.742188 48.371094 0.140625 47.578125 -0.0820312 46.511719 C -0.0820312 43.339844 -0.0820312 40.167969 -0.0820312 36.996094 C 0.136719 36.421875 0.464844 35.902344 0.902344 35.4375 C 1.367188 35.121094 1.859375 34.847656 2.378906 34.617188 C 4.28125 34.308594 6.167969 33.953125 8.039062 33.550781 C 8.816406 30.539062 9.992188 27.695312 11.566406 25.019531 C 10.230469 23.324219 9.054688 21.519531 8.039062 19.605469 C 7.699219 18.25 8.027344 17.046875 9.023438 15.996094 C 10.855469 14.164062 12.6875 12.332031 14.519531 10.5 C 15.617188 9.691406 16.820312 9.472656 18.128906 9.84375 C 19.941406 10.890625 21.664062 12.066406 23.296875 13.371094 C 25.945312 11.789062 28.761719 10.585938 31.746094 9.761719 C 32.207031 7.8125 32.617188 5.84375 32.976562 3.855469 C 33.476562 2.632812 34.378906 1.894531 35.683594 1.640625 C 39.839844 1.53125 43.996094 1.53125 48.152344 1.640625 C 49.457031 1.894531 50.359375 2.632812 50.859375 3.855469 C 51.21875 5.839844 51.628906 7.808594 52.089844 9.761719 C 55.074219 10.585938 57.890625 11.789062 60.539062 13.371094 C 61.769531 12.46875 63 11.566406 64.230469 10.664062 C 65.417969 9.738281 66.730469 9.464844 68.167969 9.84375 C 68.6875 10.132812 69.179688 10.460938 69.644531 10.828125 C 71.761719 12.835938 73.757812 14.941406 75.632812 17.144531 C 75.960938 18.128906 75.960938 19.113281 75.632812 20.097656 C 74.542969 21.761719 73.421875 23.402344 72.269531 25.019531 C 73.84375 27.695312 75.019531 30.539062 75.796875 33.550781 C 77.800781 33.898438 79.796875 34.308594 81.785156 34.78125 C 82.984375 35.242188 83.695312 36.089844 83.917969 37.324219 Z M 36.011719 3.691406 C 39.949219 3.664062 43.886719 3.691406 47.824219 3.773438 C 48.398438 3.910156 48.753906 4.265625 48.890625 4.839844 C 49.253906 6.800781 49.582031 8.769531 49.875 10.746094 C 49.917969 11.046875 50.054688 11.292969 50.285156 11.484375 C 53.796875 12.3125 57.078125 13.679688 60.128906 15.585938 C 60.589844 15.710938 61.027344 15.65625 61.441406 15.421875 C 63.144531 13.992188 64.976562 12.761719 66.9375 11.730469 C 67.25 11.84375 67.546875 11.980469 67.839844 12.140625 C 69.839844 14.085938 71.78125 16.082031 73.664062 18.128906 C 73.800781 18.722656 73.691406 19.269531 73.335938 19.769531 C 72.058594 21.421875 70.882812 23.144531 69.808594 24.9375 C 71.675781 28.152344 73.070312 31.570312 73.992188 35.191406 C 74.128906 35.328125 74.265625 35.464844 74.402344 35.601562 C 76.429688 35.914062 78.453125 36.242188 80.472656 36.585938 C 80.992188 36.75 81.402344 37.050781 81.703125 37.488281 C 81.8125 40.441406 81.8125 43.394531 81.703125 46.347656 C 81.359375 46.835938 80.894531 47.136719 80.308594 47.25 C 78.339844 47.578125 76.371094 47.90625 74.402344 48.234375 C 74.265625 48.371094 74.128906 48.507812 73.992188 48.644531 C 73.070312 52.265625 71.675781 55.683594 69.808594 58.898438 C 70.882812 60.691406 72.058594 62.414062 73.335938 64.066406 C 73.789062 64.695312 73.84375 65.351562 73.5 66.035156 C 71.613281 67.921875 69.726562 69.808594 67.839844 71.695312 C 66.964844 72.191406 66.144531 72.082031 65.378906 71.367188 C 63.890625 70.132812 62.304688 69.066406 60.621094 68.167969 C 59.003906 68.984375 57.363281 69.777344 55.699219 70.546875 C 53.914062 71.214844 52.109375 71.816406 50.285156 72.351562 C 50.054688 72.542969 49.917969 72.789062 49.875 73.089844 C 49.582031 75.066406 49.253906 77.035156 48.890625 78.996094 C 48.707031 79.34375 48.460938 79.644531 48.152344 79.898438 C 43.996094 80.007812 39.839844 80.007812 35.683594 79.898438 C 35.378906 79.648438 35.132812 79.347656 34.945312 78.996094 C 34.5625 77.089844 34.234375 75.175781 33.960938 73.253906 C 33.933594 72.898438 33.796875 72.597656 33.550781 72.351562 C 30.078125 71.4375 26.796875 70.070312 23.707031 68.25 C 23.378906 68.140625 23.050781 68.140625 22.722656 68.25 C 20.972656 69.453125 19.222656 70.65625 17.472656 71.859375 C 17.246094 71.925781 17.027344 72.007812 16.816406 72.105469 C 16.605469 72.007812 16.386719 71.925781 16.160156 71.859375 C 14.105469 69.859375 12.109375 67.808594 10.171875 65.707031 C 10.035156 65.113281 10.144531 64.566406 10.5 64.066406 C 11.757812 62.429688 12.933594 60.734375 14.027344 58.980469 C 13.179688 57.285156 12.332031 55.589844 11.484375 53.894531 C 10.816406 52.109375 10.214844 50.304688 9.679688 48.480469 C 7.664062 47.9375 5.613281 47.527344 3.527344 47.25 C 2.941406 47.136719 2.476562 46.835938 2.132812 46.347656 C 1.972656 43.269531 2.027344 40.207031 2.296875 37.160156 C 2.613281 36.898438 2.96875 36.707031 3.363281 36.585938 C 5.054688 36.292969 6.75 36.019531 8.449219 35.765625 C 8.898438 35.730469 9.308594 35.59375 9.679688 35.355469 C 10.570312 31.867188 11.9375 28.585938 13.78125 25.511719 C 13.910156 24.996094 13.855469 24.503906 13.617188 24.035156 C 12.40625 22.441406 11.257812 20.800781 10.171875 19.113281 C 10.046875 18.652344 10.101562 18.214844 10.335938 17.800781 C 12.277344 15.859375 14.21875 13.917969 16.160156 11.976562 C 17.003906 11.691406 17.769531 11.855469 18.457031 12.46875 C 19.769531 13.453125 21.082031 14.4375 22.394531 15.421875 C 22.644531 15.574219 22.917969 15.65625 23.214844 15.667969 C 24.929688 14.78125 26.679688 13.933594 28.464844 13.125 C 30.128906 12.480469 31.824219 11.933594 33.550781 11.484375 C 33.78125 11.292969 33.917969 11.046875 33.960938 10.746094 C 34.253906 8.769531 34.582031 6.800781 34.945312 4.839844 C 35.113281 4.261719 35.46875 3.878906 36.011719 3.691406 Z M 39.621094 19.277344 C 48.738281 18.8125 55.875 22.3125 61.03125 29.777344 C 62.421875 32.011719 63.378906 34.417969 63.902344 36.996094 C 62.808594 37.023438 61.714844 36.996094 60.621094 36.914062 C 60.097656 35.785156 59.550781 34.664062 58.980469 33.550781 C 58.894531 33.4375 58.785156 33.355469 58.652344 33.304688 C 56.191406 33.277344 53.730469 33.195312 51.269531 33.058594 C 50.054688 30.019531 47.867188 28.953125 44.707031 29.859375 C 42.570312 30.992188 41.667969 32.769531 42 35.191406 C 42.816406 37.917969 44.648438 39.148438 47.496094 38.882812 C 49.375 38.425781 50.632812 37.277344 51.269531 35.4375 C 53.351562 35.300781 55.429688 35.328125 57.503906 35.519531 C 58.066406 36.59375 58.585938 37.6875 59.0625 38.800781 C 59.1875 38.902344 59.324219 38.984375 59.472656 39.046875 C 61.113281 39.128906 62.753906 39.15625 64.394531 39.128906 C 65.117188 48.59375 61.5625 55.949219 53.730469 61.195312 C 51.59375 62.507812 49.296875 63.410156 46.839844 63.902344 C 46.839844 62.753906 46.839844 61.605469 46.839844 60.457031 C 47.617188 60.203125 48.382812 59.902344 49.136719 59.554688 C 49.671875 59.355469 50.136719 59.054688 50.53125 58.652344 C 50.558594 56.191406 50.640625 53.730469 50.777344 51.269531 C 53.816406 50.054688 54.882812 47.867188 53.976562 44.707031 C 52.363281 42.035156 50.09375 41.296875 47.167969 42.492188 C 44.777344 44.316406 44.257812 46.585938 45.609375 49.300781 C 46.320312 50.285156 47.25 50.941406 48.398438 51.269531 C 48.535156 53.351562 48.507812 55.429688 48.316406 57.503906 C 47.203125 57.980469 46.109375 58.5 45.035156 59.0625 C 44.933594 59.1875 44.851562 59.324219 44.789062 59.472656 C 44.707031 61.113281 44.679688 62.753906 44.707031 64.394531 C 33.707031 65.058594 25.804688 60.464844 21 50.613281 C 20.523438 49.402344 20.113281 48.171875 19.769531 46.921875 C 21.136719 46.839844 22.503906 46.8125 23.871094 46.839844 C 24.125 47.617188 24.425781 48.382812 24.773438 49.136719 C 24.972656 49.671875 25.273438 50.136719 25.675781 50.53125 C 28.136719 50.585938 30.597656 50.640625 33.058594 50.695312 C 34.226562 53.792969 36.414062 54.886719 39.621094 53.976562 C 42.59375 52.164062 43.222656 49.730469 41.507812 46.675781 C 39.761719 44.796875 37.710938 44.386719 35.355469 45.445312 C 34.152344 46.125 33.441406 47.136719 33.222656 48.480469 C 31.085938 48.535156 28.953125 48.480469 26.824219 48.316406 C 26.359375 47.277344 25.894531 46.238281 25.429688 45.199219 C 25.28125 45.003906 25.089844 44.867188 24.855469 44.789062 C 23.050781 44.707031 21.246094 44.679688 19.441406 44.707031 C 18.734375 33.511719 23.4375 25.554688 33.550781 20.835938 C 34.640625 20.464844 35.734375 20.109375 36.832031 19.769531 C 36.996094 21.132812 37.050781 22.5 36.996094 23.871094 C 36.21875 24.125 35.453125 24.425781 34.699219 24.773438 C 34.164062 24.972656 33.699219 25.273438 33.304688 25.675781 C 33.277344 28.136719 33.195312 30.597656 33.058594 33.058594 C 30.019531 34.273438 28.953125 36.460938 29.859375 39.621094 C 31.449219 42.355469 33.71875 43.09375 36.667969 41.835938 C 38.832031 40.265625 39.460938 38.214844 38.554688 35.683594 C 37.863281 34.390625 36.824219 33.515625 35.4375 33.058594 C 35.300781 30.976562 35.328125 28.898438 35.519531 26.824219 C 36.632812 26.347656 37.726562 25.828125 38.800781 25.265625 C 38.902344 25.140625 38.984375 25.003906 39.046875 24.855469 C 39.128906 23.050781 39.15625 21.246094 39.128906 19.441406 C 39.339844 19.480469 39.503906 19.425781 39.621094 19.277344 Z M 46.347656 31.582031 C 48.71875 31.894531 49.566406 33.207031 48.890625 35.519531 C 47.492188 37.203125 46.015625 37.257812 44.460938 35.683594 C 43.679688 33.636719 44.308594 32.269531 46.347656 31.582031 Z M 33.878906 35.027344 C 36.394531 35.351562 37.242188 36.71875 36.421875 39.128906 C 34.953125 40.660156 33.476562 40.660156 31.992188 39.128906 C 31.210938 37.082031 31.839844 35.714844 33.878906 35.027344 Z M 48.808594 44.050781 C 51.265625 43.910156 52.332031 45.058594 52.007812 47.496094 C 51.085938 49.265625 49.746094 49.675781 47.988281 48.726562 C 46.742188 47.4375 46.6875 46.097656 47.824219 44.707031 C 48.164062 44.484375 48.492188 44.265625 48.808594 44.050781 Z M 36.996094 47.003906 C 39.3125 46.886719 40.378906 47.980469 40.195312 50.285156 C 39.421875 52.054688 38.136719 52.574219 36.339844 51.84375 C 34.9375 50.519531 34.828125 49.097656 36.011719 47.578125 C 36.328125 47.339844 36.65625 47.148438 36.996094 47.003906 Z M 36.996094 47.003906 "/>
</g>
<mask id="mask1">
  <g filter="url(#alpha)">
<rect x="0" y="0" width="84" height="84" style="fill:rgb(0%,0%,0%);fill-opacity:0.913725;stroke:none;"/>
  </g>
</mask>
<clipPath id="clip2">
  <rect x="0" y="0" width="84" height="84"/>
</clipPath>
<g id="surface8" clip-path="url(#clip2)">
<path style=" stroke:none;fill-rule:evenodd;fill:rgb(0%,0%,0%);fill-opacity:1;" d="M 39.457031 17.144531 C 50.09375 16.652344 58.160156 20.917969 63.65625 29.941406 C 67.839844 38.289062 67.675781 46.546875 63.164062 54.714844 C 57.335938 63.574219 49.105469 67.484375 38.472656 66.445312 C 28.414062 64.628906 21.660156 58.914062 18.210938 49.300781 C 15.46875 38.878906 18.066406 30.046875 26.003906 22.804688 C 29.949219 19.621094 34.433594 17.734375 39.457031 17.144531 Z M 39.621094 19.277344 C 39.503906 19.425781 39.339844 19.480469 39.128906 19.441406 C 39.15625 21.246094 39.128906 23.050781 39.046875 24.855469 C 38.984375 25.003906 38.902344 25.140625 38.800781 25.265625 C 37.726562 25.828125 36.632812 26.347656 35.519531 26.824219 C 35.328125 28.898438 35.300781 30.976562 35.4375 33.058594 C 36.824219 33.515625 37.863281 34.390625 38.554688 35.683594 C 39.460938 38.214844 38.832031 40.265625 36.667969 41.835938 C 33.71875 43.09375 31.449219 42.355469 29.859375 39.621094 C 28.953125 36.460938 30.019531 34.273438 33.058594 33.058594 C 33.195312 30.597656 33.277344 28.136719 33.304688 25.675781 C 33.699219 25.273438 34.164062 24.972656 34.699219 24.773438 C 35.453125 24.425781 36.21875 24.125 36.996094 23.871094 C 37.050781 22.5 36.996094 21.132812 36.832031 19.769531 C 35.734375 20.109375 34.640625 20.464844 33.550781 20.835938 C 23.4375 25.554688 18.734375 33.511719 19.441406 44.707031 C 21.246094 44.679688 23.050781 44.707031 24.855469 44.789062 C 25.089844 44.867188 25.28125 45.003906 25.429688 45.199219 C 25.894531 46.238281 26.359375 47.277344 26.824219 48.316406 C 28.953125 48.480469 31.085938 48.535156 33.222656 48.480469 C 33.441406 47.136719 34.152344 46.125 35.355469 45.445312 C 37.710938 44.386719 39.761719 44.796875 41.507812 46.675781 C 43.222656 49.730469 42.59375 52.164062 39.621094 53.976562 C 36.414062 54.886719 34.226562 53.792969 33.058594 50.695312 C 30.597656 50.640625 28.136719 50.585938 25.675781 50.53125 C 25.273438 50.136719 24.972656 49.671875 24.773438 49.136719 C 24.425781 48.382812 24.125 47.617188 23.871094 46.839844 C 22.503906 46.8125 21.136719 46.839844 19.769531 46.921875 C 20.113281 48.171875 20.523438 49.402344 21 50.613281 C 25.804688 60.464844 33.707031 65.058594 44.707031 64.394531 C 44.679688 62.753906 44.707031 61.113281 44.789062 59.472656 C 44.851562 59.324219 44.933594 59.1875 45.035156 59.0625 C 46.109375 58.5 47.203125 57.980469 48.316406 57.503906 C 48.507812 55.429688 48.535156 53.351562 48.398438 51.269531 C 47.25 50.941406 46.320312 50.285156 45.609375 49.300781 C 44.257812 46.585938 44.777344 44.316406 47.167969 42.492188 C 50.09375 41.296875 52.363281 42.035156 53.976562 44.707031 C 54.882812 47.867188 53.816406 50.054688 50.777344 51.269531 C 50.640625 53.730469 50.558594 56.191406 50.53125 58.652344 C 50.136719 59.054688 49.671875 59.355469 49.136719 59.554688 C 48.382812 59.902344 47.617188 60.203125 46.839844 60.457031 C 46.839844 61.605469 46.839844 62.753906 46.839844 63.902344 C 49.296875 63.410156 51.59375 62.507812 53.730469 61.195312 C 61.5625 55.949219 65.117188 48.59375 64.394531 39.128906 C 62.753906 39.15625 61.113281 39.128906 59.472656 39.046875 C 59.324219 38.984375 59.1875 38.902344 59.0625 38.800781 C 58.585938 37.6875 58.066406 36.59375 57.503906 35.519531 C 55.429688 35.328125 53.351562 35.300781 51.269531 35.4375 C 50.632812 37.277344 49.375 38.425781 47.496094 38.882812 C 44.648438 39.148438 42.816406 37.917969 42 35.191406 C 41.667969 32.769531 42.570312 30.992188 44.707031 29.859375 C 47.867188 28.953125 50.054688 30.019531 51.269531 33.058594 C 53.730469 33.195312 56.191406 33.277344 58.652344 33.304688 C 58.785156 33.355469 58.894531 33.4375 58.980469 33.550781 C 59.550781 34.664062 60.097656 35.785156 60.621094 36.914062 C 61.714844 36.996094 62.808594 37.023438 63.902344 36.996094 C 63.378906 34.417969 62.421875 32.011719 61.03125 29.777344 C 55.875 22.3125 48.738281 18.8125 39.621094 19.277344 Z M 46.347656 31.582031 C 44.308594 32.269531 43.679688 33.636719 44.460938 35.683594 C 46.015625 37.257812 47.492188 37.203125 48.890625 35.519531 C 49.566406 33.207031 48.71875 31.894531 46.347656 31.582031 Z M 33.878906 35.027344 C 31.839844 35.714844 31.210938 37.082031 31.992188 39.128906 C 33.476562 40.660156 34.953125 40.660156 36.421875 39.128906 C 37.242188 36.71875 36.394531 35.351562 33.878906 35.027344 Z M 48.808594 44.050781 C 48.492188 44.265625 48.164062 44.484375 47.824219 44.707031 C 46.6875 46.097656 46.742188 47.4375 47.988281 48.726562 C 49.746094 49.675781 51.085938 49.265625 52.007812 47.496094 C 52.332031 45.058594 51.265625 43.910156 48.808594 44.050781 Z M 36.996094 47.003906 C 36.65625 47.148438 36.328125 47.339844 36.011719 47.578125 C 34.828125 49.097656 34.9375 50.519531 36.339844 51.84375 C 38.136719 52.574219 39.421875 52.054688 40.195312 50.285156 C 40.378906 47.980469 39.3125 46.886719 36.996094 47.003906 Z M 36.996094 47.003906 "/>
</g>
</defs>
<g id="surface1">
<use xlink:href="#surface5" mask="url(#mask0)"/>
<use xlink:href="#surface8" mask="url(#mask1)"/>
</g>
</svg>
