<?xml version="1.0" encoding="UTF-8"?>
<svg xmlns="http://www.w3.org/2000/svg" xmlns:xlink="http://www.w3.org/1999/xlink" width="84px" height="84px" viewBox="0 0 84 84" version="1.1">
<g id="surface1">
<path style=" stroke:none;fill-rule:evenodd;fill:rgb(29.411765%,34.509804%,58.823529%);fill-opacity:1;" d="M 38.144531 -0.0820312 C 39.402344 -0.0820312 40.660156 -0.0820312 41.917969 -0.0820312 C 41.917969 9.597656 41.917969 19.277344 41.917969 28.957031 C 41.011719 28.90625 40.136719 28.960938 39.292969 29.121094 C 36.519531 36.042969 33.757812 42.988281 31.007812 49.957031 C 28.316406 43.058594 25.609375 36.167969 22.886719 29.285156 C 21.359375 29.121094 19.828125 29.066406 18.292969 29.121094 C 18.292969 37.652344 18.292969 46.183594 18.292969 54.714844 C 19.441406 54.714844 20.589844 54.714844 21.738281 54.714844 C 21.710938 48.097656 21.738281 41.480469 21.820312 34.863281 C 24.488281 41.417969 27.140625 47.980469 29.777344 54.550781 C 30.632812 54.765625 31.480469 54.765625 32.320312 54.550781 C 34.859375 48.195312 37.429688 41.851562 40.03125 35.519531 C 40.113281 41.917969 40.140625 48.316406 40.113281 54.714844 C 40.679688 54.875 41.28125 54.929688 41.917969 54.878906 C 41.917969 64.558594 41.917969 74.238281 41.917969 83.917969 C 40.660156 83.917969 39.402344 83.917969 38.144531 83.917969 C 23.4375 82.132812 12.363281 74.859375 4.921875 62.097656 C 2.183594 56.933594 0.515625 51.464844 -0.0820312 45.691406 C -0.0820312 43.175781 -0.0820312 40.660156 -0.0820312 38.144531 C 1.703125 23.4375 8.976562 12.363281 21.738281 4.921875 C 26.902344 2.183594 32.371094 0.515625 38.144531 -0.0820312 Z M 38.144531 -0.0820312 "/>
<path style=" stroke:none;fill-rule:evenodd;fill:rgb(39.607843%,43.529412%,66.666667%);fill-opacity:1;" d="M 41.917969 -0.0820312 C 43.175781 -0.0820312 44.433594 -0.0820312 45.691406 -0.0820312 C 60.398438 1.703125 71.472656 8.976562 78.914062 21.738281 C 81.652344 26.902344 83.320312 32.371094 83.917969 38.144531 C 83.917969 40.660156 83.917969 43.175781 83.917969 45.691406 C 82.132812 60.398438 74.859375 71.472656 62.097656 78.914062 C 56.933594 81.652344 51.464844 83.320312 45.691406 83.917969 C 44.433594 83.917969 43.175781 83.917969 41.917969 83.917969 C 41.917969 74.238281 41.917969 64.558594 41.917969 54.878906 C 41.28125 54.929688 40.679688 54.875 40.113281 54.714844 C 41.261719 54.714844 42.410156 54.714844 43.558594 54.714844 C 43.558594 46.183594 43.558594 37.652344 43.558594 29.121094 C 42.136719 29.121094 40.714844 29.121094 39.292969 29.121094 C 40.136719 28.960938 41.011719 28.90625 41.917969 28.957031 C 41.917969 19.277344 41.917969 9.597656 41.917969 -0.0820312 Z M 41.917969 -0.0820312 "/>
<path style=" stroke:none;fill-rule:evenodd;fill:rgb(99.215686%,99.215686%,99.607843%);fill-opacity:1;" d="M 39.292969 29.121094 C 40.714844 29.121094 42.136719 29.121094 43.558594 29.121094 C 43.558594 37.652344 43.558594 46.183594 43.558594 54.714844 C 42.410156 54.714844 41.261719 54.714844 40.113281 54.714844 C 40.140625 48.316406 40.113281 41.917969 40.03125 35.519531 C 37.429688 41.851562 34.859375 48.195312 32.320312 54.550781 C 31.480469 54.765625 30.632812 54.765625 29.777344 54.550781 C 27.140625 47.980469 24.488281 41.417969 21.820312 34.863281 C 21.738281 41.480469 21.710938 48.097656 21.738281 54.714844 C 20.589844 54.714844 19.441406 54.714844 18.292969 54.714844 C 18.292969 46.183594 18.292969 37.652344 18.292969 29.121094 C 19.828125 29.066406 21.359375 29.121094 22.886719 29.285156 C 25.609375 36.167969 28.316406 43.058594 31.007812 49.957031 C 33.757812 42.988281 36.519531 36.042969 39.292969 29.121094 Z M 39.292969 29.121094 "/>
<path style=" stroke:none;fill-rule:evenodd;fill:rgb(99.607843%,100%,99.607843%);fill-opacity:1;" d="M 49.628906 29.121094 C 50.777344 29.121094 51.925781 29.121094 53.074219 29.121094 C 53.074219 36.777344 53.074219 44.433594 53.074219 52.089844 C 57.230469 52.089844 61.386719 52.089844 65.542969 52.089844 C 65.542969 52.964844 65.542969 53.839844 65.542969 54.714844 C 60.238281 54.714844 54.933594 54.714844 49.628906 54.714844 C 49.628906 46.183594 49.628906 37.652344 49.628906 29.121094 Z M 49.628906 29.121094 "/>
</g>
</svg>
