<?xml version="1.0" encoding="UTF-8"?>
<svg xmlns="http://www.w3.org/2000/svg" xmlns:xlink="http://www.w3.org/1999/xlink" width="84px" height="84px" viewBox="0 0 84 84" version="1.1">
<defs>
<filter id="alpha" filterUnits="objectBoundingBox" x="0%" y="0%" width="100%" height="100%">
  <feColorMatrix type="matrix" in="SourceGraphic" values="0 0 0 0 1 0 0 0 0 1 0 0 0 0 1 0 0 0 1 0"/>
</filter>
<mask id="mask0">
  <g filter="url(#alpha)">
<rect x="0" y="0" width="84" height="84" style="fill:rgb(0%,0%,0%);fill-opacity:0.945098;stroke:none;"/>
  </g>
</mask>
<clipPath id="clip1">
  <rect x="0" y="0" width="84" height="84"/>
</clipPath>
<g id="surface5" clip-path="url(#clip1)">
<path style=" stroke:none;fill-rule:evenodd;fill:rgb(0.784314%,1.568627%,1.960784%);fill-opacity:1;" d="M 59.308594 14.355469 C 58.96875 14.269531 58.664062 14.105469 58.40625 13.863281 C 58.996094 10.214844 57.929688 7.179688 55.207031 4.757812 C 53.191406 3.542969 51.003906 2.832031 48.644531 2.625 C 44.546875 2.171875 40.445312 2.117188 36.339844 2.460938 C 34.625 2.683594 32.929688 3.011719 31.253906 3.445312 C 28.308594 4.4375 26.421875 6.433594 25.59375 9.433594 C 25.511719 14.246094 25.484375 19.058594 25.511719 23.871094 C 31.144531 23.84375 36.777344 23.871094 42.410156 23.953125 C 42.871094 24.492188 42.816406 24.984375 42.246094 25.429688 C 31.308594 25.484375 20.371094 25.539062 9.433594 25.59375 C 6.847656 26.320312 4.960938 27.878906 3.773438 30.269531 C 2.800781 33.476562 2.253906 36.757812 2.132812 40.113281 C 1.953125 40.492188 1.652344 40.710938 1.230469 40.769531 C 0.730469 40.648438 0.457031 40.320312 0.410156 39.785156 C 0.605469 36.738281 1.070312 33.730469 1.804688 30.761719 C 3.1875 26.699219 6.003906 24.375 10.253906 23.789062 C 14.738281 23.707031 19.222656 23.679688 23.707031 23.707031 C 23.679688 19.222656 23.707031 14.738281 23.789062 10.253906 C 24.378906 6 26.703125 3.183594 30.761719 1.804688 C 38.691406 -0.183594 46.566406 -0.0195312 54.386719 2.296875 C 58.863281 4.769531 60.75 8.570312 60.046875 13.699219 C 59.925781 14.070312 59.679688 14.289062 59.308594 14.355469 Z M 59.308594 14.355469 "/>
</g>
<mask id="mask1">
  <g filter="url(#alpha)">
<rect x="0" y="0" width="84" height="84" style="fill:rgb(0%,0%,0%);fill-opacity:0.870588;stroke:none;"/>
  </g>
</mask>
<clipPath id="clip2">
  <rect x="0" y="0" width="84" height="84"/>
</clipPath>
<g id="surface8" clip-path="url(#clip2)">
<path style=" stroke:none;fill-rule:evenodd;fill:rgb(2.352941%,3.921569%,4.705882%);fill-opacity:1;" d="M 59.308594 15.832031 C 60.050781 16.109375 60.242188 16.601562 59.882812 17.308594 C 59.75 17.527344 59.558594 17.636719 59.308594 17.636719 C 59.074219 17.601562 58.855469 17.519531 58.652344 17.390625 C 58.160156 16.59375 58.378906 16.074219 59.308594 15.832031 Z M 59.308594 15.832031 "/>
</g>
<mask id="mask2">
  <g filter="url(#alpha)">
<rect x="0" y="0" width="84" height="84" style="fill:rgb(0%,0%,0%);fill-opacity:0.952941;stroke:none;"/>
  </g>
</mask>
<clipPath id="clip3">
  <rect x="0" y="0" width="84" height="84"/>
</clipPath>
<g id="surface11" clip-path="url(#clip3)">
<path style=" stroke:none;fill-rule:evenodd;fill:rgb(1.960784%,1.568627%,0.392157%);fill-opacity:1;" d="M 59.308594 19.113281 C 59.671875 19.199219 59.917969 19.417969 60.046875 19.769531 C 60.128906 21.082031 60.15625 22.394531 60.128906 23.707031 C 64.613281 23.679688 69.097656 23.707031 73.582031 23.789062 C 77.640625 24.292969 80.402344 26.453125 81.867188 30.269531 C 83.410156 36.445312 83.738281 42.679688 82.851562 48.972656 C 82.15625 56.777344 77.917969 60.46875 70.136719 60.046875 C 69.828125 59.894531 69.664062 59.648438 69.644531 59.308594 C 69.628906 58.914062 69.792969 58.613281 70.136719 58.40625 C 75.753906 59.058594 79.28125 56.679688 80.71875 51.269531 C 82.019531 44.570312 81.910156 37.898438 80.390625 31.253906 C 79.316406 28.210938 77.210938 26.324219 74.074219 25.59375 C 69.371094 25.511719 64.667969 25.484375 59.964844 25.511719 C 59.992188 28.464844 59.964844 31.417969 59.882812 34.371094 C 58.980469 38.992188 56.21875 41.753906 51.597656 42.65625 C 44.863281 42.660156 38.136719 42.769531 31.417969 42.984375 C 28.355469 43.96875 26.414062 46.019531 25.59375 49.136719 C 25.484375 57.449219 25.484375 65.761719 25.59375 74.074219 C 26.320312 77.207031 28.207031 79.3125 31.253906 80.390625 C 38.128906 81.964844 45.019531 82.019531 51.925781 80.554688 C 55.308594 79.632812 57.414062 77.472656 58.242188 74.074219 C 58.324219 69.371094 58.351562 64.667969 58.324219 59.964844 C 57.722656 59.964844 57.121094 59.964844 56.519531 59.964844 C 55.972656 59.964844 55.425781 59.964844 54.878906 59.964844 C 50.394531 59.992188 45.910156 59.964844 41.425781 59.882812 C 40.949219 59.328125 41.003906 58.835938 41.589844 58.40625 C 46.019531 58.324219 50.449219 58.296875 54.878906 58.324219 C 55.425781 58.324219 55.972656 58.324219 56.519531 58.324219 C 59.089844 58.296875 61.660156 58.324219 64.230469 58.40625 C 64.554688 58.644531 64.773438 58.945312 64.886719 59.308594 C 64.800781 59.671875 64.582031 59.917969 64.230469 60.046875 C 62.863281 60.128906 61.496094 60.15625 60.128906 60.128906 C 60.15625 64.558594 60.128906 68.988281 60.046875 73.417969 C 59.539062 77.753906 57.214844 80.625 53.074219 82.03125 C 45.636719 83.882812 38.199219 83.882812 30.761719 82.03125 C 26.699219 80.648438 24.375 77.832031 23.789062 73.582031 C 23.707031 69.097656 23.679688 64.613281 23.707031 60.128906 C 19.277344 60.15625 14.847656 60.128906 10.417969 60.046875 C 6.539062 59.597656 3.777344 57.601562 2.132812 54.058594 C 1.269531 51.386719 0.832031 48.652344 0.820312 45.855469 C 1.003906 45.722656 1.195312 45.613281 1.394531 45.527344 C 1.714844 45.632812 2.015625 45.796875 2.296875 46.019531 C 2.570312 47.996094 2.898438 49.964844 3.28125 51.925781 C 4.183594 55.234375 6.289062 57.339844 9.597656 58.242188 C 14.355469 58.324219 19.113281 58.351562 23.871094 58.324219 C 23.800781 54.980469 23.882812 51.644531 24.117188 48.316406 C 25.351562 44.457031 27.949219 42.078125 31.910156 41.179688 C 38.363281 41.125 44.816406 41.070312 51.269531 41.015625 C 55.238281 40.328125 57.5625 38.003906 58.242188 34.042969 C 58.296875 29.285156 58.351562 24.527344 58.40625 19.769531 C 58.644531 19.445312 58.945312 19.226562 59.308594 19.113281 Z M 59.308594 19.113281 "/>
</g>
<mask id="mask3">
  <g filter="url(#alpha)">
<rect x="0" y="0" width="84" height="84" style="fill:rgb(0%,0%,0%);fill-opacity:0.862745;stroke:none;"/>
  </g>
</mask>
<clipPath id="clip4">
  <rect x="0" y="0" width="84" height="84"/>
</clipPath>
<g id="surface14" clip-path="url(#clip4)">
<path style=" stroke:none;fill-rule:evenodd;fill:rgb(1.176471%,1.960784%,2.352941%);fill-opacity:1;" d="M 1.230469 42.246094 C 2.539062 42.855469 2.539062 43.457031 1.230469 44.050781 C 0.519531 43.890625 0.273438 43.453125 0.492188 42.738281 C 0.675781 42.46875 0.921875 42.304688 1.230469 42.246094 Z M 1.230469 42.246094 "/>
</g>
<mask id="mask4">
  <g filter="url(#alpha)">
<rect x="0" y="0" width="84" height="84" style="fill:rgb(0%,0%,0%);fill-opacity:0.878431;stroke:none;"/>
  </g>
</mask>
<clipPath id="clip5">
  <rect x="0" y="0" width="84" height="84"/>
</clipPath>
<g id="surface17" clip-path="url(#clip5)">
<path style=" stroke:none;fill-rule:evenodd;fill:rgb(4.313725%,3.137255%,0.392157%);fill-opacity:1;" d="M 68.167969 59.308594 C 67.949219 59.9375 67.511719 60.183594 66.855469 60.046875 C 66.585938 59.863281 66.421875 59.617188 66.363281 59.308594 C 66.339844 59.136719 66.367188 58.972656 66.445312 58.816406 C 67.253906 58.09375 67.828125 58.257812 68.167969 59.308594 Z M 68.167969 59.308594 "/>
</g>
</defs>
<g id="surface1">
<use xlink:href="#surface5" mask="url(#mask0)"/>
<path style=" stroke:none;fill-rule:evenodd;fill:rgb(44.313725%,75.294118%,90.588235%);fill-opacity:1;" d="M 59.308594 14.355469 C 59.308594 14.847656 59.308594 15.339844 59.308594 15.832031 C 58.378906 16.074219 58.160156 16.59375 58.652344 17.390625 C 58.855469 17.519531 59.074219 17.601562 59.308594 17.636719 C 59.308594 18.128906 59.308594 18.621094 59.308594 19.113281 C 58.945312 19.226562 58.644531 19.445312 58.40625 19.769531 C 58.351562 24.527344 58.296875 29.285156 58.242188 34.042969 C 57.5625 38.003906 55.238281 40.328125 51.269531 41.015625 C 44.816406 41.070312 38.363281 41.125 31.910156 41.179688 C 27.949219 42.078125 25.351562 44.457031 24.117188 48.316406 C 23.882812 51.644531 23.800781 54.980469 23.871094 58.324219 C 19.113281 58.351562 14.355469 58.324219 9.597656 58.242188 C 6.289062 57.339844 4.183594 55.234375 3.28125 51.925781 C 2.898438 49.964844 2.570312 47.996094 2.296875 46.019531 C 2.015625 45.796875 1.714844 45.632812 1.394531 45.527344 C 1.433594 45.015625 1.378906 44.523438 1.230469 44.050781 C 2.539062 43.457031 2.539062 42.855469 1.230469 42.246094 C 1.230469 41.753906 1.230469 41.261719 1.230469 40.769531 C 1.652344 40.710938 1.953125 40.492188 2.132812 40.113281 C 2.253906 36.757812 2.800781 33.476562 3.773438 30.269531 C 4.960938 27.878906 6.847656 26.320312 9.433594 25.59375 C 20.371094 25.539062 31.308594 25.484375 42.246094 25.429688 C 42.816406 24.984375 42.871094 24.492188 42.410156 23.953125 C 36.777344 23.871094 31.144531 23.84375 25.511719 23.871094 C 25.484375 19.058594 25.511719 14.246094 25.59375 9.433594 C 26.421875 6.433594 28.308594 4.4375 31.253906 3.445312 C 32.929688 3.011719 34.625 2.683594 36.339844 2.460938 C 40.445312 2.117188 44.546875 2.171875 48.644531 2.625 C 51.003906 2.832031 53.191406 3.542969 55.207031 4.757812 C 57.929688 7.179688 58.996094 10.214844 58.40625 13.863281 C 58.664062 14.105469 58.96875 14.269531 59.308594 14.355469 Z M 59.308594 14.355469 "/>
<path style=" stroke:none;fill-rule:evenodd;fill:rgb(76.470588%,89.411765%,99.607843%);fill-opacity:1;" d="M 50.777344 6.152344 C 53.101562 6.425781 54.605469 7.683594 55.289062 9.925781 C 55.398438 18.019531 55.398438 26.113281 55.289062 34.207031 C 54.671875 36.417969 53.222656 37.703125 50.941406 38.0625 C 44.488281 38.117188 38.035156 38.171875 31.582031 38.226562 C 25.164062 39.710938 21.554688 43.730469 20.753906 50.285156 C 19.710938 50.910156 19.21875 50.609375 19.277344 49.382812 C 20.441406 42.203125 24.597656 37.9375 31.746094 36.585938 C 38.199219 36.53125 44.652344 36.476562 51.105469 36.421875 C 52.320312 36.027344 53.167969 35.234375 53.648438 34.042969 C 53.757812 26.113281 53.757812 18.183594 53.648438 10.253906 C 53.132812 8.765625 52.097656 7.890625 50.53125 7.628906 C 50.167969 7.058594 50.25 6.566406 50.777344 6.152344 Z M 50.777344 6.152344 "/>
<path style=" stroke:none;fill-rule:evenodd;fill:rgb(1.568627%,2.352941%,2.352941%);fill-opacity:1;" d="M 33.550781 10.253906 C 35.839844 9.878906 37.398438 10.753906 38.226562 12.878906 C 38.390625 16.050781 36.886719 17.5 33.714844 17.226562 C 31.109375 15.890625 30.535156 13.949219 31.992188 11.402344 C 32.496094 10.980469 33.015625 10.597656 33.550781 10.253906 Z M 33.550781 10.253906 "/>
<path style=" stroke:none;fill-rule:evenodd;fill:rgb(97.254902%,97.254902%,97.254902%);fill-opacity:1;" d="M 33.878906 11.894531 C 35.738281 11.597656 36.640625 12.363281 36.585938 14.191406 C 36.167969 15.390625 35.320312 15.855469 34.042969 15.585938 C 32.363281 14.410156 32.308594 13.179688 33.878906 11.894531 Z M 33.878906 11.894531 "/>
<use xlink:href="#surface8" mask="url(#mask1)"/>
<use xlink:href="#surface11" mask="url(#mask2)"/>
<path style=" stroke:none;fill-rule:evenodd;fill:rgb(93.72549%,74.901961%,12.54902%);fill-opacity:1;" d="M 69.644531 59.308594 C 69.152344 59.308594 68.660156 59.308594 68.167969 59.308594 C 67.828125 58.257812 67.253906 58.09375 66.445312 58.816406 C 66.367188 58.972656 66.339844 59.136719 66.363281 59.308594 C 65.871094 59.308594 65.378906 59.308594 64.886719 59.308594 C 64.773438 58.945312 64.554688 58.644531 64.230469 58.40625 C 61.660156 58.324219 59.089844 58.296875 56.519531 58.324219 C 56.519531 57.339844 56.519531 56.355469 56.519531 55.371094 C 62.261719 55.398438 68.003906 55.371094 73.746094 55.289062 C 75.085938 54.933594 76.152344 54.195312 76.945312 53.074219 C 77.453125 51.980469 77.78125 50.832031 77.929688 49.628906 C 78.96875 44.09375 78.914062 38.570312 77.765625 33.058594 C 77.203125 29.980469 75.371094 28.476562 72.269531 28.546875 C 71.832031 29.039062 71.832031 29.53125 72.269531 30.023438 C 73.726562 29.972656 74.847656 30.546875 75.632812 31.746094 C 76.335938 33.820312 76.773438 35.953125 76.945312 38.144531 C 77.167969 41.773438 77.003906 45.382812 76.453125 48.972656 C 76.304688 50.046875 76.03125 51.085938 75.632812 52.089844 C 75.109375 52.914062 74.371094 53.433594 73.417969 53.648438 C 67.402344 53.703125 61.386719 53.757812 55.371094 53.8125 C 55.234375 53.949219 55.097656 54.085938 54.960938 54.222656 C 54.878906 55.589844 54.851562 56.957031 54.878906 58.324219 C 50.449219 58.296875 46.019531 58.324219 41.589844 58.40625 C 41.003906 58.835938 40.949219 59.328125 41.425781 59.882812 C 45.910156 59.964844 50.394531 59.992188 54.878906 59.964844 C 54.851562 62.753906 54.878906 65.542969 54.960938 68.332031 C 55.453125 68.988281 55.945312 68.988281 56.4375 68.332031 C 56.519531 65.542969 56.546875 62.753906 56.519531 59.964844 C 57.121094 59.964844 57.722656 59.964844 58.324219 59.964844 C 58.351562 64.667969 58.324219 69.371094 58.242188 74.074219 C 57.414062 77.472656 55.308594 79.632812 51.925781 80.554688 C 45.019531 82.019531 38.128906 81.964844 31.253906 80.390625 C 28.207031 79.3125 26.320312 77.207031 25.59375 74.074219 C 25.484375 65.761719 25.484375 57.449219 25.59375 49.136719 C 26.414062 46.019531 28.355469 43.96875 31.417969 42.984375 C 38.136719 42.769531 44.863281 42.660156 51.597656 42.65625 C 56.21875 41.753906 58.980469 38.992188 59.882812 34.371094 C 59.964844 31.417969 59.992188 28.464844 59.964844 25.511719 C 64.667969 25.484375 69.371094 25.511719 74.074219 25.59375 C 77.210938 26.324219 79.316406 28.210938 80.390625 31.253906 C 81.910156 37.898438 82.019531 44.570312 80.71875 51.269531 C 79.28125 56.679688 75.753906 59.058594 70.136719 58.40625 C 69.792969 58.613281 69.628906 58.914062 69.644531 59.308594 Z M 69.644531 59.308594 "/>
<path style=" stroke:none;fill-rule:evenodd;fill:rgb(97.254902%,89.411765%,67.45098%);fill-opacity:1;" d="M 56.519531 58.324219 C 55.972656 58.324219 55.425781 58.324219 54.878906 58.324219 C 54.851562 56.957031 54.878906 55.589844 54.960938 54.222656 C 55.097656 54.085938 55.234375 53.949219 55.371094 53.8125 C 61.386719 53.757812 67.402344 53.703125 73.417969 53.648438 C 74.371094 53.433594 75.109375 52.914062 75.632812 52.089844 C 76.03125 51.085938 76.304688 50.046875 76.453125 48.972656 C 77.003906 45.382812 77.167969 41.773438 76.945312 38.144531 C 76.773438 35.953125 76.335938 33.820312 75.632812 31.746094 C 74.847656 30.546875 73.726562 29.972656 72.269531 30.023438 C 71.832031 29.53125 71.832031 29.039062 72.269531 28.546875 C 75.371094 28.476562 77.203125 29.980469 77.765625 33.058594 C 78.914062 38.570312 78.96875 44.09375 77.929688 49.628906 C 77.78125 50.832031 77.453125 51.980469 76.945312 53.074219 C 76.152344 54.195312 75.085938 54.933594 73.746094 55.289062 C 68.003906 55.371094 62.261719 55.398438 56.519531 55.371094 C 56.519531 56.355469 56.519531 57.339844 56.519531 58.324219 Z M 56.519531 58.324219 "/>
<use xlink:href="#surface14" mask="url(#mask3)"/>
<path style=" stroke:none;fill-rule:evenodd;fill:rgb(75.686275%,89.019608%,99.215686%);fill-opacity:1;" d="M 19.769531 52.253906 C 20.234375 52.183594 20.589844 52.347656 20.835938 52.746094 C 20.945312 53.457031 20.945312 54.167969 20.835938 54.878906 C 20.390625 55.449219 19.898438 55.503906 19.359375 55.042969 C 19.25 54.222656 19.25 53.402344 19.359375 52.582031 C 19.523438 52.488281 19.660156 52.378906 19.769531 52.253906 Z M 19.769531 52.253906 "/>
<use xlink:href="#surface17" mask="url(#mask4)"/>
<path style=" stroke:none;fill-rule:evenodd;fill:rgb(96.862745%,89.019608%,67.843137%);fill-opacity:1;" d="M 54.878906 59.964844 C 55.425781 59.964844 55.972656 59.964844 56.519531 59.964844 C 56.546875 62.753906 56.519531 65.542969 56.4375 68.332031 C 55.945312 68.988281 55.453125 68.988281 54.960938 68.332031 C 54.878906 65.542969 54.851562 62.753906 54.878906 59.964844 Z M 54.878906 59.964844 "/>
<path style=" stroke:none;fill-rule:evenodd;fill:rgb(3.137255%,2.352941%,1.568627%);fill-opacity:1;" d="M 48.152344 66.527344 C 51.621094 66.523438 53.015625 68.21875 52.335938 71.613281 C 51.378906 73.3125 49.929688 73.941406 47.988281 73.5 C 45.761719 72.394531 45.078125 70.671875 45.9375 68.332031 C 46.484375 67.472656 47.222656 66.871094 48.152344 66.527344 Z M 48.152344 66.527344 "/>
<path style=" stroke:none;fill-rule:evenodd;fill:rgb(98.039216%,98.039216%,98.039216%);fill-opacity:1;" d="M 48.316406 68.167969 C 50.792969 68.171875 51.503906 69.292969 50.449219 71.53125 C 48.207031 72.460938 47.140625 71.722656 47.25 69.316406 C 47.527344 68.847656 47.882812 68.464844 48.316406 68.167969 Z M 48.316406 68.167969 "/>
<path style=" stroke:none;fill-rule:evenodd;fill:rgb(97.254902%,89.411765%,67.45098%);fill-opacity:1;" d="M 55.207031 70.464844 C 55.730469 70.375 56.140625 70.539062 56.4375 70.957031 C 56.546875 71.667969 56.546875 72.378906 56.4375 73.089844 C 56.023438 73.679688 55.53125 73.734375 54.960938 73.253906 C 54.851562 72.433594 54.851562 71.613281 54.960938 70.792969 C 55.078125 70.703125 55.160156 70.59375 55.207031 70.464844 Z M 55.207031 70.464844 "/>
</g>
</svg>
