<?xml version="1.0" encoding="UTF-8"?>
<svg xmlns="http://www.w3.org/2000/svg" xmlns:xlink="http://www.w3.org/1999/xlink" width="80px" height="80px" viewBox="0 0 80 80" version="1.1">
<defs>
<filter id="alpha" filterUnits="objectBoundingBox" x="0%" y="0%" width="100%" height="100%">
  <feColorMatrix type="matrix" in="SourceGraphic" values="0 0 0 0 1 0 0 0 0 1 0 0 0 0 1 0 0 0 1 0"/>
</filter>
<mask id="mask0">
  <g filter="url(#alpha)">
<rect x="0" y="0" width="80" height="80" style="fill:rgb(0%,0%,0%);fill-opacity:0.996078;stroke:none;"/>
  </g>
</mask>
<clipPath id="clip1">
  <rect x="0" y="0" width="80" height="80"/>
</clipPath>
<g id="surface5" clip-path="url(#clip1)">
<path style=" stroke:none;fill-rule:evenodd;fill:rgb(20.784314%,44.313725%,54.117647%);fill-opacity:1;" d="M 46.640625 8.359375 C 45.75 10.003906 44.394531 11.121094 42.578125 11.71875 C 39 13.070312 35.304688 13.902344 31.484375 14.21875 C 23.515625 15.085938 15.648438 14.566406 7.890625 12.65625 C 5.519531 12.082031 3.464844 10.964844 1.71875 9.296875 C 1.570312 8.949219 1.390625 8.636719 1.171875 8.359375 C 1.144531 7.242188 1.558594 6.332031 2.421875 5.625 C 4.082031 4.460938 5.90625 3.628906 7.890625 3.125 C 13.164062 1.761719 18.53125 1.109375 23.984375 1.171875 C 29.433594 1.132812 34.800781 1.785156 40.078125 3.125 C 41.9375 3.613281 43.65625 4.394531 45.234375 5.46875 C 46.234375 6.179688 46.703125 7.144531 46.640625 8.359375 Z M 46.640625 8.359375 "/>
</g>
<mask id="mask1">
  <g filter="url(#alpha)">
<rect x="0" y="0" width="80" height="80" style="fill:rgb(0%,0%,0%);fill-opacity:0.996078;stroke:none;"/>
  </g>
</mask>
<clipPath id="clip2">
  <rect x="0" y="0" width="80" height="80"/>
</clipPath>
<g id="surface8" clip-path="url(#clip2)">
<path style=" stroke:none;fill-rule:evenodd;fill:rgb(25.490196%,51.764706%,65.882353%);fill-opacity:1;" d="M 1.171875 8.359375 C 1.390625 8.636719 1.570312 8.949219 1.71875 9.296875 C 3.464844 10.964844 5.519531 12.082031 7.890625 12.65625 C 15.648438 14.566406 23.515625 15.085938 31.484375 14.21875 C 35.304688 13.902344 39 13.070312 42.578125 11.71875 C 44.394531 11.121094 45.75 10.003906 46.640625 8.359375 C 46.640625 11.902344 46.640625 15.441406 46.640625 18.984375 C 45.859375 20.476562 44.660156 21.542969 43.046875 22.1875 C 39.421875 23.574219 35.671875 24.457031 31.796875 24.84375 C 24.285156 25.648438 16.835938 25.285156 9.453125 23.75 C 6.824219 23.214844 4.429688 22.175781 2.265625 20.625 C 1.96875 20.253906 1.710938 19.863281 1.484375 19.453125 C 1.417969 19.265625 1.3125 19.109375 1.171875 18.984375 C 1.171875 15.441406 1.171875 11.902344 1.171875 8.359375 Z M 1.171875 8.359375 "/>
</g>
<mask id="mask2">
  <g filter="url(#alpha)">
<rect x="0" y="0" width="80" height="80" style="fill:rgb(0%,0%,0%);fill-opacity:0.713725;stroke:none;"/>
  </g>
</mask>
<clipPath id="clip3">
  <rect x="0" y="0" width="80" height="80"/>
</clipPath>
<g id="surface11" clip-path="url(#clip3)">
<path style=" stroke:none;fill-rule:evenodd;fill:rgb(36.470588%,74.901961%,59.215686%);fill-opacity:1;" d="M 1.171875 18.984375 C 1.3125 19.109375 1.417969 19.265625 1.484375 19.453125 C 1.328125 21.039062 1.277344 22.652344 1.328125 24.296875 C 1.277344 24.296875 1.222656 24.296875 1.171875 24.296875 C 1.171875 22.527344 1.171875 20.753906 1.171875 18.984375 Z M 1.171875 18.984375 "/>
</g>
<mask id="mask3">
  <g filter="url(#alpha)">
<rect x="0" y="0" width="80" height="80" style="fill:rgb(0%,0%,0%);fill-opacity:0.996078;stroke:none;"/>
  </g>
</mask>
<clipPath id="clip4">
  <rect x="0" y="0" width="80" height="80"/>
</clipPath>
<g id="surface14" clip-path="url(#clip4)">
<path style=" stroke:none;fill-rule:evenodd;fill:rgb(25.490196%,51.764706%,65.882353%);fill-opacity:1;" d="M 1.171875 24.296875 C 1.222656 24.296875 1.277344 24.296875 1.328125 24.296875 C 1.683594 25.460938 2.414062 26.320312 3.515625 26.875 C 6.046875 28.136719 8.703125 29.019531 11.484375 29.53125 C 20.035156 30.9375 28.574219 30.882812 37.109375 29.375 C 39.617188 28.851562 42.011719 28.019531 44.296875 26.875 C 45.390625 26.277344 46.171875 25.417969 46.640625 24.296875 C 46.640625 26.796875 46.640625 29.296875 46.640625 31.796875 C 42.011719 33.5625 38.210938 36.429688 35.234375 40.390625 C 27.523438 41.449219 19.816406 41.425781 12.109375 40.3125 C 8.6875 39.816406 5.511719 38.667969 2.578125 36.875 C 2.054688 36.484375 1.691406 35.988281 1.484375 35.390625 C 1.40625 35.15625 1.304688 34.949219 1.171875 34.765625 C 1.171875 31.277344 1.171875 27.785156 1.171875 24.296875 Z M 1.171875 24.296875 "/>
</g>
<mask id="mask4">
  <g filter="url(#alpha)">
<rect x="0" y="0" width="80" height="80" style="fill:rgb(0%,0%,0%);fill-opacity:0.996078;stroke:none;"/>
  </g>
</mask>
<clipPath id="clip5">
  <rect x="0" y="0" width="80" height="80"/>
</clipPath>
<g id="surface17" clip-path="url(#clip5)">
<path style=" stroke:none;fill-rule:evenodd;fill:rgb(20.784314%,44.313725%,54.117647%);fill-opacity:1;" d="M 30.703125 57.109375 C 30.328125 53.351562 30.796875 49.703125 32.109375 46.171875 C 32.867188 44.078125 33.910156 42.152344 35.234375 40.390625 C 38.210938 36.429688 42.011719 33.5625 46.640625 31.796875 C 57.019531 28.785156 65.847656 31.234375 73.125 39.140625 C 78.886719 46.660156 80.136719 54.890625 76.875 63.828125 C 72.039062 73.945312 63.992188 78.867188 52.734375 78.59375 C 43.472656 77.574219 36.78125 72.914062 32.65625 64.609375 C 31.566406 62.222656 30.914062 59.722656 30.703125 57.109375 Z M 30.703125 57.109375 "/>
</g>
<mask id="mask5">
  <g filter="url(#alpha)">
<rect x="0" y="0" width="80" height="80" style="fill:rgb(0%,0%,0%);fill-opacity:0.713725;stroke:none;"/>
  </g>
</mask>
<clipPath id="clip6">
  <rect x="0" y="0" width="80" height="80"/>
</clipPath>
<g id="surface20" clip-path="url(#clip6)">
<path style=" stroke:none;fill-rule:evenodd;fill:rgb(36.078431%,74.117647%,59.215686%);fill-opacity:1;" d="M 1.171875 34.765625 C 1.304688 34.949219 1.40625 35.15625 1.484375 35.390625 C 1.328125 37.027344 1.277344 38.695312 1.328125 40.390625 C 1.277344 40.390625 1.222656 40.390625 1.171875 40.390625 C 1.171875 38.515625 1.171875 36.640625 1.171875 34.765625 Z M 1.171875 34.765625 "/>
</g>
<mask id="mask6">
  <g filter="url(#alpha)">
<rect x="0" y="0" width="80" height="80" style="fill:rgb(0%,0%,0%);fill-opacity:0.992157;stroke:none;"/>
  </g>
</mask>
<clipPath id="clip7">
  <rect x="0" y="0" width="80" height="80"/>
</clipPath>
<g id="surface23" clip-path="url(#clip7)">
<path style=" stroke:none;fill-rule:evenodd;fill:rgb(25.490196%,51.764706%,65.882353%);fill-opacity:1;" d="M 1.171875 40.390625 C 1.222656 40.390625 1.277344 40.390625 1.328125 40.390625 C 1.414062 40.71875 1.542969 41.03125 1.71875 41.328125 C 3.464844 42.996094 5.523438 44.117188 7.890625 44.6875 C 15.871094 46.609375 23.945312 47.105469 32.109375 46.171875 C 30.796875 49.703125 30.328125 53.351562 30.703125 57.109375 C 25.695312 57.378906 20.695312 57.300781 15.703125 56.875 C 11.628906 56.519531 7.722656 55.53125 3.984375 53.90625 C 2.757812 53.304688 1.84375 52.390625 1.25 51.171875 C 1.171875 47.578125 1.144531 43.984375 1.171875 40.390625 Z M 1.171875 40.390625 "/>
</g>
</defs>
<g id="surface1">
<use xlink:href="#surface5" mask="url(#mask0)"/>
<use xlink:href="#surface8" mask="url(#mask1)"/>
<use xlink:href="#surface11" mask="url(#mask2)"/>
<path style=" stroke:none;fill-rule:evenodd;fill:rgb(42.352941%,87.45098%,55.686275%);fill-opacity:1;" d="M 46.640625 18.984375 C 46.640625 20.753906 46.640625 22.527344 46.640625 24.296875 C 46.171875 25.417969 45.390625 26.277344 44.296875 26.875 C 42.011719 28.019531 39.617188 28.851562 37.109375 29.375 C 28.574219 30.882812 20.035156 30.9375 11.484375 29.53125 C 8.703125 29.019531 6.046875 28.136719 3.515625 26.875 C 2.414062 26.320312 1.683594 25.460938 1.328125 24.296875 C 1.277344 22.652344 1.328125 21.039062 1.484375 19.453125 C 1.710938 19.863281 1.96875 20.253906 2.265625 20.625 C 4.429688 22.175781 6.824219 23.214844 9.453125 23.75 C 16.835938 25.285156 24.285156 25.648438 31.796875 24.84375 C 35.671875 24.457031 39.421875 23.574219 43.046875 22.1875 C 44.660156 21.542969 45.859375 20.476562 46.640625 18.984375 Z M 46.640625 18.984375 "/>
<use xlink:href="#surface14" mask="url(#mask3)"/>
<use xlink:href="#surface17" mask="url(#mask4)"/>
<use xlink:href="#surface20" mask="url(#mask5)"/>
<path style=" stroke:none;fill-rule:evenodd;fill:rgb(42.352941%,87.058824%,55.686275%);fill-opacity:1;" d="M 1.484375 35.390625 C 1.691406 35.988281 2.054688 36.484375 2.578125 36.875 C 5.511719 38.667969 8.6875 39.816406 12.109375 40.3125 C 19.816406 41.425781 27.523438 41.449219 35.234375 40.390625 C 33.910156 42.152344 32.867188 44.078125 32.109375 46.171875 C 23.945312 47.105469 15.871094 46.609375 7.890625 44.6875 C 5.523438 44.117188 3.464844 42.996094 1.71875 41.328125 C 1.542969 41.03125 1.414062 40.71875 1.328125 40.390625 C 1.277344 38.695312 1.328125 37.027344 1.484375 35.390625 Z M 1.484375 35.390625 "/>
<use xlink:href="#surface23" mask="url(#mask6)"/>
<path style=" stroke:none;fill-rule:evenodd;fill:rgb(98.823529%,98.823529%,99.215686%);fill-opacity:1;" d="M 41.484375 45.234375 C 44.613281 45.039062 46.722656 46.390625 47.8125 49.296875 C 47.917969 49.871094 47.917969 50.441406 47.8125 51.015625 C 47.160156 52.117188 46.378906 52.21875 45.46875 51.328125 C 45.417969 49.351562 44.429688 48.207031 42.5 47.890625 C 40.578125 48.25 39.746094 49.394531 40 51.328125 C 40.277344 52.175781 40.824219 52.777344 41.640625 53.125 C 44.699219 53.050781 46.753906 54.429688 47.8125 57.265625 C 48.273438 60.546875 46.945312 62.710938 43.828125 63.75 C 40.414062 64.1875 38.25 62.753906 37.34375 59.453125 C 36.980469 58.289062 37.371094 57.558594 38.515625 57.265625 C 38.9375 57.292969 39.300781 57.449219 39.609375 57.734375 C 39.816406 58.582031 40.105469 59.417969 40.46875 60.234375 C 41.550781 61.265625 42.773438 61.449219 44.140625 60.78125 C 45.578125 59.304688 45.578125 57.847656 44.140625 56.40625 C 43.207031 55.949219 42.21875 55.742188 41.171875 55.78125 C 38.28125 54.664062 37.007812 52.554688 37.34375 49.453125 C 38.023438 47.339844 39.402344 45.933594 41.484375 45.234375 Z M 41.484375 45.234375 "/>
<path style=" stroke:none;fill-rule:evenodd;fill:rgb(98.431373%,98.823529%,98.823529%);fill-opacity:1;" d="M 54.921875 45.234375 C 57.964844 45.023438 60.023438 46.324219 61.09375 49.140625 C 61.347656 52.519531 61.398438 55.902344 61.25 59.296875 C 61.0625 59.9375 60.828125 60.5625 60.546875 61.171875 C 61.199219 61.863281 61.328125 62.644531 60.9375 63.515625 C 60.0625 64.171875 59.28125 64.066406 58.59375 63.203125 C 56.089844 64.34375 53.851562 63.980469 51.875 62.109375 C 51.34375 61.46875 50.980469 60.738281 50.78125 59.921875 C 50.527344 56.492188 50.476562 53.054688 50.625 49.609375 C 51.253906 47.339844 52.683594 45.882812 54.921875 45.234375 Z M 54.921875 45.234375 "/>
<path style=" stroke:none;fill-rule:evenodd;fill:rgb(99.215686%,99.215686%,99.215686%);fill-opacity:1;" d="M 66.484375 46.171875 C 66.484375 51.222656 66.484375 56.277344 66.484375 61.328125 C 67.941406 61.328125 69.402344 61.328125 70.859375 61.328125 C 71.898438 61.667969 72.183594 62.347656 71.71875 63.359375 C 71.472656 63.601562 71.183594 63.78125 70.859375 63.90625 C 68.878906 64.011719 66.902344 64.011719 64.921875 63.90625 C 64.589844 63.730469 64.304688 63.496094 64.0625 63.203125 C 63.957031 57.472656 63.957031 51.746094 64.0625 46.015625 C 64.535156 45.230469 65.183594 45.046875 66.015625 45.46875 C 66.273438 45.644531 66.429688 45.878906 66.484375 46.171875 Z M 66.484375 46.171875 "/>
<path style=" stroke:none;fill-rule:evenodd;fill:rgb(70.588235%,79.215686%,82.745098%);fill-opacity:1;" d="M 66.484375 46.171875 C 66.640625 51.144531 66.691406 56.144531 66.640625 61.171875 C 68.074219 61.121094 69.480469 61.171875 70.859375 61.328125 C 69.402344 61.328125 67.941406 61.328125 66.484375 61.328125 C 66.484375 56.277344 66.484375 51.222656 66.484375 46.171875 Z M 66.484375 46.171875 "/>
<path style=" stroke:none;fill-rule:evenodd;fill:rgb(21.960784%,45.098039%,54.509804%);fill-opacity:1;" d="M 58.515625 50.078125 C 58.566406 52.710938 58.515625 55.3125 58.359375 57.890625 C 57.625 57.0625 56.867188 57.0625 56.09375 57.890625 C 55.988281 58.359375 55.988281 58.828125 56.09375 59.296875 C 56.472656 59.792969 56.808594 60.3125 57.109375 60.859375 C 55.148438 61.636719 53.875 61.011719 53.28125 58.984375 C 53.175781 55.964844 53.175781 52.941406 53.28125 49.921875 C 54.28125 47.816406 55.765625 47.375 57.734375 48.59375 C 58.167969 49 58.429688 49.496094 58.515625 50.078125 Z M 58.515625 50.078125 "/>
<path style=" stroke:none;fill-rule:evenodd;fill:rgb(63.921569%,74.509804%,78.823529%);fill-opacity:1;" d="M 58.515625 50.078125 C 58.695312 52.757812 58.722656 55.46875 58.59375 58.203125 C 58.480469 58.117188 58.402344 58.015625 58.359375 57.890625 C 58.515625 55.3125 58.566406 52.710938 58.515625 50.078125 Z M 58.515625 50.078125 "/>
</g>
</svg>
