<?xml version="1.0" encoding="UTF-8"?>
<svg xmlns="http://www.w3.org/2000/svg" xmlns:xlink="http://www.w3.org/1999/xlink" width="84px" height="84px" viewBox="0 0 84 84" version="1.1">
<defs>
<filter id="alpha" filterUnits="objectBoundingBox" x="0%" y="0%" width="100%" height="100%">
  <feColorMatrix type="matrix" in="SourceGraphic" values="0 0 0 0 1 0 0 0 0 1 0 0 0 0 1 0 0 0 1 0"/>
</filter>
<mask id="mask0">
  <g filter="url(#alpha)">
<rect x="0" y="0" width="84" height="84" style="fill:rgb(0%,0%,0%);fill-opacity:0.996078;stroke:none;"/>
  </g>
</mask>
<clipPath id="clip1">
  <rect x="0" y="0" width="84" height="84"/>
</clipPath>
<g id="surface5" clip-path="url(#clip1)">
<path style=" stroke:none;fill-rule:evenodd;fill:rgb(81.568627%,90.980392%,95.686275%);fill-opacity:1;" d="M 4.347656 1.394531 C 4.511719 17.789062 4.566406 34.195312 4.511719 50.613281 C 3.035156 50.613281 1.558594 50.613281 0.0820312 50.613281 C 0.0820312 34.207031 0.0820312 17.800781 0.0820312 1.394531 C 1.503906 1.394531 2.925781 1.394531 4.347656 1.394531 Z M 4.347656 1.394531 "/>
</g>
<mask id="mask1">
  <g filter="url(#alpha)">
<rect x="0" y="0" width="84" height="84" style="fill:rgb(0%,0%,0%);fill-opacity:0.984314;stroke:none;"/>
  </g>
</mask>
<clipPath id="clip2">
  <rect x="0" y="0" width="84" height="84"/>
</clipPath>
<g id="surface8" clip-path="url(#clip2)">
<path style=" stroke:none;fill-rule:evenodd;fill:rgb(18.039216%,25.098039%,34.901961%);fill-opacity:1;" d="M 0.0820312 50.777344 C 1.570312 50.671875 2.992188 50.78125 4.347656 51.105469 C 4.507812 54.429688 4.5625 57.765625 4.511719 61.113281 C 3.035156 61.113281 1.558594 61.113281 0.0820312 61.113281 C 0.0820312 57.667969 0.0820312 54.222656 0.0820312 50.777344 Z M 0.0820312 50.777344 "/>
</g>
<mask id="mask2">
  <g filter="url(#alpha)">
<rect x="0" y="0" width="84" height="84" style="fill:rgb(0%,0%,0%);fill-opacity:0.988235;stroke:none;"/>
  </g>
</mask>
<clipPath id="clip3">
  <rect x="0" y="0" width="84" height="84"/>
</clipPath>
<g id="surface11" clip-path="url(#clip3)">
<path style=" stroke:none;fill-rule:evenodd;fill:rgb(31.372549%,39.607843%,52.54902%);fill-opacity:1;" d="M 47.332031 61.113281 C 47.332031 65.269531 47.332031 69.425781 47.332031 73.582031 C 46.34375 73.171875 45.414062 72.652344 44.542969 72.023438 C 41.417969 69.074219 39.941406 65.4375 40.113281 61.113281 C 42.519531 61.113281 44.925781 61.113281 47.332031 61.113281 Z M 47.332031 61.113281 "/>
</g>
<mask id="mask3">
  <g filter="url(#alpha)">
<rect x="0" y="0" width="84" height="84" style="fill:rgb(0%,0%,0%);fill-opacity:0.968627;stroke:none;"/>
  </g>
</mask>
<clipPath id="clip4">
  <rect x="0" y="0" width="84" height="84"/>
</clipPath>
<g id="surface14" clip-path="url(#clip4)">
<path style=" stroke:none;fill-rule:evenodd;fill:rgb(19.607843%,26.27451%,36.862745%);fill-opacity:1;" d="M 34.371094 74.074219 C 32.792969 74.421875 31.671875 75.351562 31.007812 76.863281 C 30.824219 78.722656 30.6875 80.582031 30.597656 82.441406 C 29.230469 82.441406 27.863281 82.441406 26.496094 82.441406 C 25.320312 76.015625 27.945312 73.226562 34.371094 74.074219 Z M 34.371094 74.074219 "/>
</g>
<mask id="mask4">
  <g filter="url(#alpha)">
<rect x="0" y="0" width="84" height="84" style="fill:rgb(0%,0%,0%);fill-opacity:0.984314;stroke:none;"/>
  </g>
</mask>
<clipPath id="clip5">
  <rect x="0" y="0" width="84" height="84"/>
</clipPath>
<g id="surface17" clip-path="url(#clip5)">
<path style=" stroke:none;fill-rule:evenodd;fill:rgb(21.568627%,27.843137%,40.392157%);fill-opacity:1;" d="M 34.371094 74.074219 C 35.082031 74.074219 35.792969 74.074219 36.503906 74.074219 C 40.113281 74.074219 43.722656 74.074219 47.332031 74.074219 C 49.574219 74.046875 51.816406 74.074219 54.058594 74.15625 C 55.671875 74.675781 56.738281 75.742188 57.257812 77.355469 C 57.339844 79.050781 57.367188 80.746094 57.339844 82.441406 C 48.425781 82.441406 39.511719 82.441406 30.597656 82.441406 C 30.6875 80.582031 30.824219 78.722656 31.007812 76.863281 C 31.671875 75.351562 32.792969 74.421875 34.371094 74.074219 Z M 34.371094 74.074219 "/>
</g>
</defs>
<g id="surface1">
<use xlink:href="#surface5" mask="url(#mask0)"/>
<path style=" stroke:none;fill-rule:evenodd;fill:rgb(91.372549%,96.078431%,99.607843%);fill-opacity:1;" d="M 4.347656 1.394531 C 30.816406 1.394531 57.285156 1.394531 83.753906 1.394531 C 83.753906 17.800781 83.753906 34.207031 83.753906 50.613281 C 57.339844 50.613281 30.925781 50.613281 4.511719 50.613281 C 4.566406 34.195312 4.511719 17.789062 4.347656 1.394531 Z M 4.347656 1.394531 "/>
<path style=" stroke:none;fill-rule:evenodd;fill:rgb(93.72549%,69.019608%,25.882353%);fill-opacity:1;" d="M 23.871094 6.480469 C 23.871094 9.707031 23.871094 12.933594 23.871094 16.160156 C 23.355469 16.390625 22.863281 16.664062 22.394531 16.980469 C 22.230469 13.425781 22.175781 9.871094 22.230469 6.316406 C 22.78125 6.335938 23.328125 6.390625 23.871094 6.480469 Z M 23.871094 6.480469 "/>
<path style=" stroke:none;fill-rule:evenodd;fill:rgb(99.215686%,78.823529%,34.117647%);fill-opacity:1;" d="M 23.871094 6.480469 C 27.359375 7.121094 29.984375 8.980469 31.746094 12.058594 C 29.164062 13.515625 26.539062 14.882812 23.871094 16.160156 C 23.871094 12.933594 23.871094 9.707031 23.871094 6.480469 Z M 23.871094 6.480469 "/>
<path style=" stroke:none;fill-rule:evenodd;fill:rgb(22.745098%,29.019608%,41.568627%);fill-opacity:1;" d="M 59.308594 7.136719 C 60.734375 7.21875 62.15625 7.355469 63.574219 7.546875 C 64.21875 7.558594 64.792969 7.75 65.296875 8.121094 C 65.449219 8.371094 65.53125 8.644531 65.542969 8.941406 C 65.382812 10.644531 65.191406 12.339844 64.96875 14.027344 C 64.308594 14.507812 63.707031 14.453125 63.164062 13.863281 C 63.136719 13.039062 63.054688 12.21875 62.917969 11.402344 C 57.199219 15.875 51.511719 20.386719 45.855469 24.9375 C 44.515625 25.5625 43.886719 25.152344 43.96875 23.707031 C 49.832031 18.984375 55.710938 14.28125 61.605469 9.597656 C 60.851562 9.40625 60.085938 9.269531 59.308594 9.1875 C 58.445312 8.496094 58.445312 7.8125 59.308594 7.136719 Z M 59.308594 7.136719 "/>
<path style=" stroke:none;fill-rule:evenodd;fill:rgb(24.705882%,60.784314%,93.72549%);fill-opacity:1;" d="M 18.457031 10.253906 C 13.386719 11.75 10.652344 15.140625 10.253906 20.425781 C 10.488281 25.828125 13.167969 29.355469 18.292969 31.007812 C 18.761719 31.039062 19.199219 31.121094 19.605469 31.253906 C 13.605469 31.414062 9.75 28.625 8.039062 22.886719 C 7.222656 16.726562 9.710938 12.542969 15.503906 10.335938 C 16.199219 10.121094 16.910156 9.984375 17.636719 9.925781 C 17.988281 9.933594 18.261719 10.042969 18.457031 10.253906 Z M 18.457031 10.253906 "/>
<path style=" stroke:none;fill-rule:evenodd;fill:rgb(32.941176%,62.745098%,99.607843%);fill-opacity:1;" d="M 18.457031 10.253906 C 18.429688 13.699219 18.457031 17.144531 18.539062 20.589844 C 20.96875 23.183594 23.457031 25.726562 26.003906 28.21875 C 24.253906 30.023438 22.121094 31.035156 19.605469 31.253906 C 19.199219 31.121094 18.761719 31.039062 18.292969 31.007812 C 13.167969 29.355469 10.488281 25.828125 10.253906 20.425781 C 10.652344 15.140625 13.386719 11.75 18.457031 10.253906 Z M 18.457031 10.253906 "/>
<path style=" stroke:none;fill-rule:evenodd;fill:rgb(91.764706%,11.764706%,28.235294%);fill-opacity:1;" d="M 76.699219 11.402344 C 75.660156 11.402344 74.621094 11.402344 73.582031 11.402344 C 73.582031 21.628906 73.582031 31.855469 73.582031 42.082031 C 72.597656 42.082031 71.613281 42.082031 70.628906 42.082031 C 70.628906 31.855469 70.628906 21.628906 70.628906 11.402344 C 72.652344 11.183594 74.675781 11.183594 76.699219 11.402344 Z M 76.699219 11.402344 "/>
<path style=" stroke:none;fill-rule:evenodd;fill:rgb(98.431373%,19.215686%,29.019608%);fill-opacity:1;" d="M 76.699219 11.402344 C 76.699219 21.628906 76.699219 31.855469 76.699219 42.082031 C 75.660156 42.082031 74.621094 42.082031 73.582031 42.082031 C 73.582031 31.855469 73.582031 21.628906 73.582031 11.402344 C 74.621094 11.402344 75.660156 11.402344 76.699219 11.402344 Z M 76.699219 11.402344 "/>
<path style=" stroke:none;fill-rule:evenodd;fill:rgb(98.431373%,20%,29.803922%);fill-opacity:1;" d="M 32.238281 26.824219 C 30.027344 24.609375 27.8125 22.367188 25.59375 20.097656 C 25.515625 19.941406 25.488281 19.777344 25.511719 19.605469 C 28.023438 18.296875 30.539062 16.984375 33.058594 15.667969 C 34.582031 18.519531 34.773438 21.472656 33.632812 24.527344 C 33.289062 25.386719 32.824219 26.152344 32.238281 26.824219 Z M 32.238281 26.824219 "/>
<path style=" stroke:none;fill-rule:evenodd;fill:rgb(91.764706%,12.54902%,28.627451%);fill-opacity:1;" d="M 25.511719 19.605469 C 25.488281 19.777344 25.515625 19.941406 25.59375 20.097656 C 27.8125 22.367188 30.027344 24.609375 32.238281 26.824219 C 31.96875 27.449219 31.53125 27.859375 30.925781 28.054688 C 28.578125 25.542969 26.171875 23.082031 23.707031 20.671875 C 24.3125 20.316406 24.914062 19.960938 25.511719 19.605469 Z M 25.511719 19.605469 "/>
<path style=" stroke:none;fill-rule:evenodd;fill:rgb(93.333333%,69.019608%,25.098039%);fill-opacity:1;" d="M 58.980469 22.066406 C 59.964844 22.066406 60.949219 22.066406 61.933594 22.066406 C 61.933594 28.738281 61.933594 35.410156 61.933594 42.082031 C 60.949219 42.082031 59.964844 42.082031 58.980469 42.082031 C 58.980469 35.410156 58.980469 28.738281 58.980469 22.066406 Z M 58.980469 22.066406 "/>
<path style=" stroke:none;fill-rule:evenodd;fill:rgb(99.215686%,78.823529%,33.72549%);fill-opacity:1;" d="M 58.980469 22.066406 C 60.976562 21.902344 63 21.847656 65.050781 21.902344 C 65.050781 28.628906 65.050781 35.355469 65.050781 42.082031 C 64.011719 42.082031 62.972656 42.082031 61.933594 42.082031 C 61.933594 35.410156 61.933594 28.738281 61.933594 22.066406 C 60.949219 22.066406 59.964844 22.066406 58.980469 22.066406 Z M 58.980469 22.066406 "/>
<path style=" stroke:none;fill-rule:evenodd;fill:rgb(32.54902%,62.352941%,99.607843%);fill-opacity:1;" d="M 50.285156 29.613281 C 51.324219 29.613281 52.363281 29.613281 53.402344 29.613281 C 53.402344 33.769531 53.402344 37.925781 53.402344 42.082031 C 52.363281 42.082031 51.324219 42.082031 50.285156 42.082031 C 50.285156 37.925781 50.285156 33.769531 50.285156 29.613281 Z M 50.285156 29.613281 "/>
<path style=" stroke:none;fill-rule:evenodd;fill:rgb(23.529412%,60.392157%,93.72549%);fill-opacity:1;" d="M 50.285156 29.613281 C 50.285156 33.769531 50.285156 37.925781 50.285156 42.082031 C 49.300781 42.082031 48.316406 42.082031 47.332031 42.082031 C 47.332031 37.925781 47.332031 33.769531 47.332031 29.613281 C 48.316406 29.613281 49.300781 29.613281 50.285156 29.613281 Z M 50.285156 29.613281 "/>
<path style=" stroke:none;fill-rule:evenodd;fill:rgb(22.352941%,28.627451%,41.176471%);fill-opacity:1;" d="M 8.449219 35.191406 C 9.925781 35.164062 11.402344 35.191406 12.878906 35.273438 C 13.453125 35.570312 13.644531 36.035156 13.453125 36.667969 C 13.371094 36.96875 13.179688 37.160156 12.878906 37.242188 C 11.402344 37.351562 9.925781 37.351562 8.449219 37.242188 C 7.582031 36.566406 7.582031 35.882812 8.449219 35.191406 Z M 8.449219 35.191406 "/>
<path style=" stroke:none;fill-rule:evenodd;fill:rgb(21.960784%,28.235294%,40.784314%);fill-opacity:1;" d="M 16.652344 35.191406 C 22.722656 35.164062 28.792969 35.191406 34.863281 35.273438 C 35.484375 35.609375 35.675781 36.128906 35.4375 36.832031 C 35.300781 36.96875 35.164062 37.105469 35.027344 37.242188 C 28.902344 37.351562 22.777344 37.351562 16.652344 37.242188 C 15.789062 36.558594 15.789062 35.875 16.652344 35.191406 Z M 16.652344 35.191406 "/>
<path style=" stroke:none;fill-rule:evenodd;fill:rgb(22.352941%,28.627451%,41.176471%);fill-opacity:1;" d="M 8.449219 39.292969 C 9.925781 39.265625 11.402344 39.292969 12.878906 39.375 C 13.683594 39.953125 13.738281 40.609375 13.042969 41.34375 C 11.457031 41.453125 9.871094 41.453125 8.285156 41.34375 C 7.597656 40.597656 7.652344 39.914062 8.449219 39.292969 Z M 8.449219 39.292969 "/>
<path style=" stroke:none;fill-rule:evenodd;fill:rgb(21.960784%,28.235294%,40.784314%);fill-opacity:1;" d="M 16.652344 39.292969 C 22.722656 39.265625 28.792969 39.292969 34.863281 39.375 C 35.652344 39.964844 35.707031 40.621094 35.027344 41.34375 C 28.902344 41.453125 22.777344 41.453125 16.652344 41.34375 C 15.785156 40.667969 15.785156 39.984375 16.652344 39.292969 Z M 16.652344 39.292969 "/>
<path style=" stroke:none;fill-rule:evenodd;fill:rgb(64.705882%,53.333333%,60.392157%);fill-opacity:1;" d="M 70.628906 11.402344 C 70.628906 21.628906 70.628906 31.855469 70.628906 42.082031 C 66.746094 42.300781 62.863281 42.300781 58.980469 42.082031 C 59.964844 42.082031 60.949219 42.082031 61.933594 42.082031 C 62.972656 42.082031 64.011719 42.082031 65.050781 42.082031 C 66.855469 42.082031 68.660156 42.082031 70.464844 42.082031 C 70.410156 31.828125 70.464844 21.601562 70.628906 11.402344 Z M 70.628906 11.402344 "/>
<path style=" stroke:none;fill-rule:evenodd;fill:rgb(23.921569%,29.803922%,42.352941%);fill-opacity:1;" d="M 47.332031 42.082031 C 48.316406 42.082031 49.300781 42.082031 50.285156 42.082031 C 51.324219 42.082031 52.363281 42.082031 53.402344 42.082031 C 55.261719 42.082031 57.121094 42.082031 58.980469 42.082031 C 62.863281 42.300781 66.746094 42.300781 70.628906 42.082031 C 71.613281 42.082031 72.597656 42.082031 73.582031 42.082031 C 74.621094 42.082031 75.660156 42.082031 76.699219 42.082031 C 78.195312 42.007812 79.671875 42.089844 81.128906 42.328125 C 81.828125 43.101562 81.71875 43.757812 80.800781 44.296875 C 68.277344 44.40625 55.753906 44.40625 43.230469 44.296875 C 42.589844 43.875 42.425781 43.300781 42.738281 42.574219 C 42.902344 42.4375 43.066406 42.300781 43.230469 42.164062 C 44.597656 42.082031 45.964844 42.054688 47.332031 42.082031 Z M 47.332031 42.082031 "/>
<path style=" stroke:none;fill-rule:evenodd;fill:rgb(24.705882%,30.588235%,42.745098%);fill-opacity:1;" d="M 8.449219 43.394531 C 9.871094 43.367188 11.292969 43.394531 12.714844 43.476562 C 13.808594 44.1875 13.808594 44.898438 12.714844 45.609375 C 11.347656 45.71875 9.980469 45.71875 8.613281 45.609375 C 7.597656 44.941406 7.542969 44.203125 8.449219 43.394531 Z M 8.449219 43.394531 "/>
<path style=" stroke:none;fill-rule:evenodd;fill:rgb(24.705882%,30.588235%,42.745098%);fill-opacity:1;" d="M 16.816406 43.394531 C 22.832031 43.367188 28.847656 43.394531 34.863281 43.476562 C 35.78125 44.261719 35.726562 44.972656 34.699219 45.609375 C 28.738281 45.71875 22.777344 45.71875 16.816406 45.609375 C 15.734375 44.871094 15.734375 44.132812 16.816406 43.394531 Z M 16.816406 43.394531 "/>
<path style=" stroke:none;fill-rule:evenodd;fill:rgb(33.72549%,39.607843%,50.980392%);fill-opacity:1;" d="M 0.0820312 50.777344 C 0.0820312 50.722656 0.0820312 50.667969 0.0820312 50.613281 C 1.558594 50.613281 3.035156 50.613281 4.511719 50.613281 C 30.925781 50.613281 57.339844 50.613281 83.753906 50.613281 C 83.753906 50.667969 83.753906 50.722656 83.753906 50.777344 C 57.25 50.667969 30.78125 50.777344 4.347656 51.105469 C 2.992188 50.78125 1.570312 50.671875 0.0820312 50.777344 Z M 0.0820312 50.777344 "/>
<use xlink:href="#surface8" mask="url(#mask1)"/>
<path style=" stroke:none;fill-rule:evenodd;fill:rgb(21.568627%,28.235294%,40.392157%);fill-opacity:1;" d="M 83.753906 50.777344 C 83.753906 54.222656 83.753906 57.667969 83.753906 61.113281 C 71.613281 61.113281 59.472656 61.113281 47.332031 61.113281 C 43.722656 60.894531 40.113281 60.894531 36.503906 61.113281 C 25.839844 61.113281 15.175781 61.113281 4.511719 61.113281 C 4.5625 57.765625 4.507812 54.429688 4.347656 51.105469 C 30.78125 50.777344 57.25 50.667969 83.753906 50.777344 Z M 83.753906 50.777344 "/>
<path style=" stroke:none;fill-rule:evenodd;fill:rgb(80.392157%,89.803922%,94.509804%);fill-opacity:1;" d="M 42.902344 53.074219 C 40.679688 53.988281 40.160156 55.519531 41.34375 57.667969 C 41.753906 58.1875 42.273438 58.515625 42.902344 58.652344 C 40.550781 59.113281 39.238281 58.128906 38.964844 55.699219 C 39.371094 53.429688 40.683594 52.554688 42.902344 53.074219 Z M 42.902344 53.074219 "/>
<path style=" stroke:none;fill-rule:evenodd;fill:rgb(90.980392%,95.686275%,99.215686%);fill-opacity:1;" d="M 42.902344 53.074219 C 44.886719 53.992188 45.40625 55.46875 44.460938 57.503906 C 44.050781 58.054688 43.53125 58.4375 42.902344 58.652344 C 42.273438 58.515625 41.753906 58.1875 41.34375 57.667969 C 40.160156 55.519531 40.679688 53.988281 42.902344 53.074219 Z M 42.902344 53.074219 "/>
<path style=" stroke:none;fill-rule:evenodd;fill:rgb(27.45098%,35.686275%,47.843137%);fill-opacity:1;" d="M 47.332031 61.113281 C 44.925781 61.113281 42.519531 61.113281 40.113281 61.113281 C 39.941406 65.4375 41.417969 69.074219 44.542969 72.023438 C 45.414062 72.652344 46.34375 73.171875 47.332031 73.582031 C 47.332031 73.746094 47.332031 73.910156 47.332031 74.074219 C 43.722656 74.074219 40.113281 74.074219 36.503906 74.074219 C 36.503906 69.753906 36.503906 65.433594 36.503906 61.113281 C 40.113281 60.894531 43.722656 60.894531 47.332031 61.113281 Z M 47.332031 61.113281 "/>
<use xlink:href="#surface11" mask="url(#mask2)"/>
<use xlink:href="#surface14" mask="url(#mask3)"/>
<use xlink:href="#surface17" mask="url(#mask4)"/>
</g>
</svg>
